<svg xmlns="http://www.w3.org/2000/svg" viewBox="44 6 106 30" fill="none">
  <path fill="#212223" d="M46.938 9.77h8.241c4.453 0 7.432 2.597 7.432 6.652 0 2.571-1.36 4.624-3.469 5.623l3.989 7.709H58.33l-3.415-6.71h-3.643v6.71h-4.34V9.77h.005zm4.34 3.567v6.138h3.559c2.053 0 3.353-1.199 3.353-3.056s-1.3-3.084-3.353-3.084h-3.559v.002zm12.473 9.105c0-4.569 3.035-7.535 7.633-7.535s7.461 2.739 7.519 7.05c0 .43-.028.912-.116 1.371H68v.198c.087 2.083 1.445 3.34 3.499 3.34 1.65 0 2.805-.714 3.153-2.083h4.021c-.464 2.855-3.035 5.139-7 5.139-4.946 0-7.922-2.94-7.922-7.48h.002-.001zm11.046-1.743c-.29-1.799-1.535-2.797-3.385-2.797s-3.095 1.057-3.325 2.797h6.71zm15.891-5.618h4.079v14.674h-3.615l-.374-1.771c-.954 1.141-2.254 1.941-4.368 1.941-3.063 0-5.9-1.513-5.9-6.71v-8.136h4.079v7.593c0 2.626.87 3.912 2.893 3.912s3.209-1.455 3.209-4.168v-7.337h-.002l.002.002h-.001zm6.491-4.101h4.079v4.11h3.385v3.398h-3.385v6.425c0 1.028.406 1.455 1.445 1.455h2.11v3.396h-3.385c-2.835 0-4.251-1.397-4.251-4.195V10.982l.002-.002zm8.306 11.462c0-4.569 3.035-7.535 7.636-7.535s7.461 2.739 7.519 7.05a7.77 7.77 0 0 1-.116 1.371h-10.788v.198c.084 2.083 1.445 3.34 3.499 3.34 1.649 0 2.805-.714 3.156-2.083h4.017c-.464 2.855-3.035 5.139-6.997 5.139-4.946 0-7.926-2.94-7.926-7.48zm11.05-1.743c-.29-1.799-1.535-2.797-3.385-2.797s-3.095 1.057-3.325 2.797h6.71zm14.97-5.62v3.656h-1.619c-2.431 0-3.354 1.597-3.354 3.826v7.194h-4.078V15.081h3.701l.377 2.196c.81-1.313 1.964-2.196 4.279-2.196h.694v-.002zm4.526 9.794c.145 1.284 1.271 2.169 3.269 2.169 1.705 0 2.747-.543 2.747-1.569 0-1.199-1.01-1.284-3.412-1.597-3.472-.4-6.162-1.171-6.162-4.195s2.575-4.825 6.39-4.795c3.989 0 6.74 1.743 6.942 4.737H141.9c-.113-1.171-1.244-1.885-2.891-1.885s-2.631.572-2.631 1.513c0 1.115 1.273 1.229 3.414 1.485 3.415.342 6.248 1.115 6.248 4.426 0 2.91-2.777 4.767-6.768 4.767s-6.939-1.915-7.115-5.051h3.875-.002v-.005h.001z"/>
</svg>
