<svg preserveAspectRatio="none" width="100%" height="100%" overflow="visible" style="display: block;" viewBox="0 0 20 20" fill="none" xmlns="http://www.w3.org/2000/svg">
<g id="flag-for-flag-united-arab-emirates-svgrepo-com 1">
<path id="Vector" d="M17.7778 2.77778H5V7.77778H20V5C20 4.41063 19.7659 3.8454 19.3491 3.42865C18.9324 3.0119 18.3671 2.77778 17.7778 2.77778Z" fill="var(--fill-0, #068241)"/>
<path id="Vector_2" d="M5 7.77778H20V12.2222H5V7.77778Z" fill="var(--fill-0, #EEEEEE)"/>
<path id="Vector_3" d="M5 17.2222H17.7778C18.3671 17.2222 18.9324 16.9881 19.3491 16.5713C19.7659 16.1546 20 15.5894 20 15V12.2222H5V17.2222Z" fill="var(--fill-0, #141414)"/>
<path id="Vector_4" d="M2.22222 2.77778C1.63285 2.77778 1.06762 3.0119 0.650874 3.42865C0.234127 3.8454 3.8147e-07 4.41063 3.8147e-07 5L3.8147e-07 15C3.8147e-07 15.5894 0.234127 16.1546 0.650874 16.5713C1.06762 16.9881 1.63285 17.2222 2.22222 17.2222H5V2.77778H2.22222Z" fill="var(--fill-0, #EC2028)"/>
</g>
</svg>
