<?xml version="1.0" encoding="UTF-8"?>
<svg id="Layer_1" xmlns="http://www.w3.org/2000/svg" version="1.1" viewBox="0 0 595.28 595.28">
  <!-- Generator: Adobe Illustrator 29.8.1, SVG Export Plug-In . SVG Version: 2.1.1 Build 2)  -->
  <defs>
    <style>
      .st0 {
        fill: #231f20;
      }
    </style>
  </defs>
  <path class="st0" d="M316.01,339.38l-8.85,23.73h7.94l1.03-3.13h8.22l1.03,3.13h7.94l-8.85-23.73h-8.45ZM317.92,354.31l1.66-5.04c.24-.87.48-1.83.64-3.05.16,1.22.4,2.18.68,3.05l1.66,5.04h-4.64ZM272.75,339.38h-7.86v23.73h17.98v-6.87h-10.12v-16.87ZM295.29,339.39h-10.24v23.73h10.24c8.49,0,12.3-4.93,12.3-11.87.04-6.95-3.77-11.87-12.3-11.87ZM295.1,356.53h-2.22v-10.6h2.22c2.78,0,4.48,1.43,4.48,5.28s-1.7,5.32-4.48,5.32ZM317.99,288.35c-5.6,4.17-12.54,6.63-20.04,6.63-1.35,0-2.66-.08-3.97-.24v37.3h24.01v-43.69ZM286.32,292.96c-6.27-2.34-11.63-6.51-15.51-11.83h-8.37v9.37c0,21.35-11.75,23.22-18.54,23.14h-6.31v18.49h31.35c10.84-7.7,16.59-20.67,17.38-39.17ZM246.05,359.98h8.22l1.03,3.13h7.94l-8.85-23.73h-8.41l-8.89,23.73h7.93l1.04-3.13ZM249.53,349.27c.24-.87.48-1.83.64-3.05.16,1.22.4,2.18.68,3.05l1.67,5.04h-4.64l1.66-5.04ZM198.42,198.43v198.43h198.43v-198.43h-198.43ZM394.87,394.87h-194.46v-194.46h194.46v194.46ZM356.09,347.76c0-6.47-5.04-8.38-10.11-8.38h-11.03v23.73h7.82v-7.02h1.82l4.88,7.02h8.61l-6.07-8.29c2.38-1.19,4.08-3.37,4.08-7.06ZM345.82,350.22h-3.02v-4.44h3.02c1.51,0,2.42.91,2.42,2.22s-.88,2.22-2.42,2.22ZM357.49,230.17h-24.05v44.09h24.05v-44.09ZM342.2,308.71c0,3.89-3.33,3.85-5.6,3.85h-11.15v19.52h31.99v-37.82s-4.48-9.17-15.4-16.51l-14.25,14.09c.04-.08,14.4,7.38,14.4,16.87ZM297.96,289.5c17.02,0,28.02-14.2,28.02-27.82v-31.55h-19.45v30.12c0,.99.28,9.28-8.81,9.28s-10.76-10.2-2.93-20.04l-16.39-9.17s-8.22,9.09-8.22,21.86c0,14.92,12.46,27.34,27.78,27.3Z"/>
</svg>