<svg xmlns="http://www.w3.org/2000/svg" viewBox="0 0 770 205" fill="currentColor">
  <path d="M355.7 44.7h-1.5c-57.4 119.2-58.4 126.7-63.8 139h-.4c-5.5-12.3-6.5-19.8-63.8-139h-1.6S210.2 204 204.6 204v.8h17.2v-.8c-4.2 0 8.4-112.5 9-125.5h.4a776 776 0 0 0 25.7 57.6c7.7 16 18.2 40.8 31.5 68.7h3.6c13.3-27.9 23.8-52.7 31.5-68.7a730.6 730.6 0 0 0 25.6-57.6h.4c.7 13 13.3 125.5 9.1 125.5v.8h17.1v-.8c-5.6 0-20-159.4-20-159.4M67.8 71.2h-.2c-2.6 7.6-31.9 80.6-31.9 80.6-17.4 43-20.5 51.2-18.4 52.3v.8H0v-.8c4.3 0 67.1-159.4 67.1-159.4h2s60 159.4 64.3 159.4v.8h-17.8v-.8c2-1-.5-9.3-17.5-52.3 0 0-27.8-73-30.3-80.7m446.9.1h-.2c-2.6 7.6-32 80.6-32 80.6-17.3 43-20.5 51.2-18.3 52.3v.8h-17.3v-.8c4.3 0 67-159.4 67-159.4h2.1S576 204 580.3 204v.8h-17.8v-.8c2-1-.5-9.3-17.5-52.3 0 0-27.9-73-30.3-80.7m251.9-23.7h-8v.8c1.5 0 2.7 9.5 2.7 67.7V178h-.4c-8.9-12.7-61.4-80-104-133.3h-1.6v91.7c0 58.2-2.5 67.7-3.9 67.7v.8h17.2v-.8c-1.3 0-2.6-9.5-2.6-67.7V73.7h.4c8.8 12.8 61.4 80 104 133.4h1.5v-91.3c0-58.2 2.6-67.7 4-67.7v-.8ZM43.1 0h48.3v10.5H43.1z"/>
</svg>
