<?xml version="1.0" encoding="UTF-8"?>
<svg id="Layer_1" xmlns="http://www.w3.org/2000/svg" version="1.1" viewBox="0 0 595.28 595.28">
  <!-- Generator: Adobe Illustrator 29.8.1, SVG Export Plug-In . SVG Version: 2.1.1 Build 2)  -->
  <defs>
    <style>
      .st0 {
        fill: #231f20;
      }
    </style>
  </defs>
  <g id="Custom_Size_1">
    <g id="Group_791">
      <g id="Group_788">
        <g id="Group_786">
          <path id="Path_429" class="st0" d="M290.21,319.39c0-5.12-.03-6.09-.07-7.21-.03-1.43-.52-1.99-1.53-2.09-.42-.03-.91-.07-1.29-.1-.52-.03-.62-.17-.62-.35,0-.28.28-.35.7-.35,2.12,0,3.86.1,5.57.1,2.3,0,4.35-.1,5.71-.1,7.35,0,8.74,3.41,8.74,5.36,0,2.82-1.95,4.63-4.25,5.82,3.65,1.11,6.75,3.34,6.75,7.55,0,3.86-3.62,7.69-10.55,7.69-1.29,0-5.4-.21-6.44-.21-1.53,0-3.17.1-5.05.1-.49,0-.73-.1-.73-.35s.17-.35.7-.35c.35-.02.7-.06,1.05-.14.62-.1,1.01-.62,1.11-1.91.14-1.92.21-3.93.21-8.32v-5.15ZM296.23,325.31c0,1.67-.03,4.11.07,5.88.07,1.11.21,1.56.91,1.92.7.39,1.5.58,2.3.56,1.81,0,3.97-1.25,3.97-4.74.1-2-.65-3.94-2.05-5.36-.89-.81-2.04-1.28-3.24-1.32-.58-.04-1.16-.04-1.74,0-.14,0-.21.07-.21.24v2.82ZM296.23,319.77c0,.28.14.31.31.35.73.1,1.46.14,2.2.14.74.05,1.47-.14,2.09-.56.84-.89,1.26-2.09,1.15-3.31,0-2.82-1.39-5.19-4.14-5.19-.42-.01-.85.04-1.25.17-.21.07-.35.14-.35.62v7.77Z"/>
          <path id="Path_430" class="st0" d="M314.3,319.39c0-5.4,0-6.39-.1-7.52-.07-.98-.45-1.6-1.22-1.74-.34-.08-.69-.12-1.04-.14-.42,0-.66-.14-.66-.38,0-.21.17-.31.77-.31,1.39,0,4.81.1,5.08.1.31,0,4.42-.1,5.67-.1.59,0,.77.14.77.35,0,.28-.31.35-.66.35-.35.03-.56.03-1.01.1-.91.17-1.25.62-1.32,1.87-.1,1.12-.1,2.02-.1,7.42v6.14c0,2.75.03,5.99.17,7.45.07.91.28,1.53,1.32,1.78.51.09,1.02.15,1.53.17.59,0,.73.14.73.35,0,.17-.17.35-.73.35-2.37,0-6.09-.1-6.39-.1-.17,0-3.83.1-5.01.1-.56,0-.84-.07-.84-.35,0-.24.28-.35.7-.35.35-.03.7-.07,1.08-.14.73-.1.98-.87,1.08-1.87.14-1.46.21-3.97.21-7.38l-.02-6.13Z"/>
          <path id="Path_431" class="st0" d="M329.31,310.44c.03-1.05.17-1.67.59-1.67.28,0,.45.1,1.36.84,1.46,1.22,3.28,2.97,11.25,10.27,3.55,3.28,5.95,5.61,6.89,6.44l-.21-13.06c-.07-1.95-.24-2.85-1.64-3.1-.51-.09-1.02-.15-1.53-.17-.45,0-.62-.17-.62-.35,0-.24.31-.35.7-.35,1.39,0,3.66.1,5.05.1.77,0,2.51-.1,3.97-.1.52,0,.77.1.77.31,0,.17-.17.38-.59.38-.29,0-.59.04-.87.1-1.15.14-1.5.73-1.6,2.89-.28,6.99-.28,13.96-.42,20.96,0,1.78-.24,2.16-.7,2.16-.56,0-1.64-.84-3.9-2.82-2.37-2.09-5.43-4.84-7.52-6.75-1.95-1.78-5.43-5.05-7.97-7.52l.35,11.87c.07,2.51.21,3.45,1.18,3.8.61.15,1.22.23,1.85.24.52.03.7.14.7.35,0,.28-.28.35-.84.35-1.22,0-2.33-.07-4.5-.1-.8,0-3.38.1-4.74.1-.49,0-.77-.07-.77-.35,0-.21.17-.35.66-.35.31-.03.76-.03,1.15-.1,1.36-.21,1.53-1.08,1.64-4.32.16-7.18.09-15.57.3-20.06Z"/>
          <path id="Path_432" class="st0" d="M383.13,332.27c0,2.06-.07,2.26-.7,2.51-2.75.9-5.63,1.34-8.53,1.32-9.78,0-16.57-4.39-16.57-13.65-.18-4.65,2.24-9.02,6.27-11.35,3.06-1.67,6.51-2.46,9.99-2.3,1.89.01,3.78.18,5.64.49,1.18.14,2.33.38,3.34.42.31,0,.38.14.35.45-.34,2.11-.47,4.26-.38,6.39,0,.56-.14.73-.38.73s-.38-.28-.42-.56c-.04-.6-.18-1.19-.42-1.74-.66-2.37-3.76-4.04-8.6-4.04-2.35-.15-4.64.77-6.23,2.51-1.6,2.17-2.38,4.83-2.2,7.52,0,6.23,3,12.88,10.3,12.88.68.04,1.35-.1,1.95-.42.29-.22.44-.57.42-.94v-2.11c0-1.43,0-2.78-.03-4.07,0-1.98-.45-2.72-1.64-2.89-.45-.07-.91-.1-1.5-.17-.28,0-.56-.14-.56-.35s.17-.35.73-.35c2.26,0,4.94.1,5.88.1,1.25,0,3.52-.1,5.4-.1.52,0,.8.07.8.35,0,.24-.21.31-.56.35-.14,0-.59.07-.94.1-.84.17-1.22.56-1.32,1.77-.07,1.12-.1,2.92-.1,4.63v2.51Z"/>
          <path id="Path_433" class="st0" d="M407.39,320.02c.1,0,.21-.07.21-.24v-.73c0-5.4,0-5.99-.07-7.1-.07-1.01-.35-1.6-1.5-1.85-.28-.03-.8-.07-1.22-.1-.49,0-.66-.21-.66-.35,0-.21.17-.35.7-.35,2.02,0,5.15.1,5.5.1.31,0,4.32-.1,5.81-.1.52,0,.7.14.7.35,0,.17-.17.35-.52.35-.59.07-.8.07-1.22.14-.91.14-1.18.73-1.29,1.84-.07,1.12-.07,2.02-.07,7.42v6.13c0,3.31,0,5.88.17,7.35.1,1.15.38,1.74,1.43,1.91.49.07,1.18.1,1.53.14.42,0,.59.17.59.35,0,.24-.28.35-.7.35-2.4,0-5.92-.1-6.55-.1-.56,0-3.28.1-4.98.1-.62,0-.77-.17-.77-.38,0-.17.21-.31.66-.31.36-.03.72-.07,1.08-.14.84-.17,1.05-.84,1.15-1.95.14-1.46.21-3.66.21-6.96v-2.82c0-.06-.02-.11-.06-.15-.04-.04-.09-.06-.15-.06h-10.86c-.06,0-.12,0-.16.05-.04.04-.06.1-.05.16v3.62c0,3.31.04,4.74.17,6.23.1,1.01.42,1.67,1.46,1.84.73.1,1.08.14,1.46.17.38,0,.66.1.66.35,0,.17-.17.35-.7.35-1.99,0-6.09-.1-6.44-.1-.31,0-3.97.1-5.08.1-.38,0-.77-.07-.77-.31s.14-.38.59-.38c.42-.03.62-.07,1.08-.14.84-.1,1.15-1.01,1.22-2.06.1-1.46.17-3.9.17-7.21v-6.06c0-5.4-.03-6.2-.1-7.31-.07-1.22-.45-1.87-1.67-2.06-.42-.07-.59-.07-.98-.1-.62-.03-.7-.21-.7-.38,0-.24.38-.31.77-.31,2.02,0,4.7.1,5.5.1,1.32,0,4.25-.1,5.75-.1.62,0,.73.14.73.35,0,.17-.21.35-.62.35-.41.03-.82.07-1.22.14-.94.21-1.11,1.01-1.18,2.02-.1,1.11-.1,2.54-.1,6.89v.73c0,.17.1.24.21.24l10.85-.02Z"/>
          <path id="Path_434" class="st0" d="M428.6,328.41c-.17,0-.24.07-.31.24l-1.08,2.85c-.3.71-.48,1.46-.56,2.23,0,.66.31.98,1.05,1.05.38.07.94.1,1.22.14.52,0,.62.17.62.35,0,.28-.28.35-.73.35-1.56,0-2.75-.1-4.6-.1-.38,0-2.68.1-4.42.1-.49,0-.7-.14-.7-.35,0-.28.24-.35.66-.35.37-.02.75-.07,1.11-.14,1.22-.24,1.92-1.32,2.65-3l9.29-21.03c.66-1.5,1.05-2.02,1.43-2.02.35,0,.66.49,1.25,1.74.91,1.95,6.75,15.29,9.12,20.58,1.18,2.72,1.95,3.55,3.17,3.73.37.08.74.12,1.11.14.45,0,.66.14.66.35,0,.24-.24.35-.91.35-3.41,0-7.38-.07-9.61-.1-.56,0-.77-.1-.77-.31s.17-.35.49-.42c.38-.07.52-.31.42-.62l-2.33-5.53c-.04-.12-.15-.21-.28-.21h-7.97ZM435.57,325.63c.21,0,.21-.1.17-.17l-3.06-7.45c-.1-.24-.17-.17-.24,0l-2.97,7.45c-.03.1.03.17.14.17h5.96Z"/>
          <path id="Path_435" class="st0" d="M460.25,325.52c0,2.72,0,5.95.17,7.42.07.91.31,1.64,1.36,1.81.45.07.87.1,1.5.17.56.03.7.14.7.38,0,.21-.17.31-.8.31-2.37,0-5.75-.1-6.3-.1-.59,0-3.97.1-5.12.1-.56,0-.8-.07-.8-.35,0-.24.28-.35.7-.35.35-.03.73-.07,1.11-.14.77-.14,1.01-.91,1.11-1.92.14-1.46.21-3.97.21-7.35v-13.65c-1.36,0-3.52-.03-5.26.07-1.95.1-2.72.56-3.17,1.77-.12.26-.22.53-.31.8-.07.28-.17.56-.42.56-.31,0-.31-.28-.28-.7.14-1.43.52-3.31.77-4.63.07-.52.17-.87.38-.87.4.07.8.16,1.18.28,1.28.17,2.57.26,3.86.24h15.14c.74,0,1.47-.04,2.2-.14.35-.09.71-.16,1.08-.21.31,0,.35.21.35,1.08,0,.49-.21,3.73-.24,4.6-.03.49-.14.7-.35.7-.28,0-.35-.21-.38-.62-.01-.23-.03-.47-.07-.7-.14-1.08-.66-1.91-2.72-2.05-1.15-.1-2.97-.17-5.6-.17v13.65Z"/>
          <path id="Path_436" class="st0" d="M486.56,325.52c0,2.72,0,5.95.17,7.42.07.91.31,1.64,1.36,1.81.45.07.87.1,1.5.17.56.03.7.14.7.38,0,.21-.17.31-.8.31-2.37,0-5.75-.1-6.3-.1-.59,0-3.97.1-5.12.1-.56,0-.8-.07-.8-.35,0-.24.28-.35.7-.35.35-.03.73-.07,1.11-.14.77-.14,1.01-.91,1.11-1.92.14-1.46.21-3.97.21-7.35v-13.65c-1.36,0-3.52-.03-5.26.07-1.95.1-2.72.56-3.17,1.77-.12.26-.22.53-.31.8-.07.28-.17.56-.42.56-.31,0-.31-.28-.28-.7.14-1.43.52-3.31.77-4.63.07-.52.17-.87.38-.87.4.07.79.16,1.18.28,1.28.17,2.57.26,3.86.24h15.14c.74,0,1.47-.04,2.2-.14.36-.09.72-.16,1.08-.21.31,0,.35.21.35,1.08,0,.49-.21,3.73-.24,4.6-.03.49-.14.7-.35.7-.28,0-.35-.21-.38-.62-.04-.38-.04-.52-.07-.7-.14-1.08-.66-1.91-2.71-2.05-1.15-.1-2.97-.17-5.6-.17v13.65Z"/>
          <path id="Path_437" class="st0" d="M500.31,319.39c0-5.4,0-6.39-.1-7.52-.07-.98-.45-1.6-1.22-1.74-.34-.08-.69-.12-1.04-.14-.42,0-.66-.14-.66-.38,0-.21.17-.31.77-.31,1.39,0,4.81.1,5.08.1.31,0,4.42-.1,5.67-.1.59,0,.77.14.77.35,0,.28-.31.35-.66.35-.35.03-.56.03-1.01.1-.91.17-1.25.62-1.32,1.87-.1,1.12-.1,2.02-.1,7.42v6.14c0,2.75.03,5.99.17,7.45.07.91.28,1.53,1.32,1.78.51.09,1.02.15,1.53.17.59,0,.73.14.73.35,0,.17-.17.35-.73.35-2.37,0-6.09-.1-6.39-.1-.17,0-3.83.1-5.01.1-.56,0-.84-.07-.84-.35,0-.24.28-.35.7-.35.35-.03.7-.07,1.08-.14.73-.1.98-.87,1.08-1.87.14-1.46.21-3.97.21-7.38l-.02-6.13Z"/>
        </g>
        <g id="Group_787">
          <path id="Path_438" class="st0" d="M328.39,286.85h-5.88c-1.71.09-3.39-.52-4.63-1.7-1.19-1.27-1.8-2.96-1.7-4.7v-8.85h-4.05c-3.6,0-5.4,2.29-5.4,6.87,0,3.52,1.35,5.32,4.04,5.4h3.58v2.81c.04,2.38-.8,4.69-2.38,6.48-1.63,1.84-3.91,2.99-6.36,3.2h-6.68c-3.49.24-6.9-1.12-9.27-3.7-2.07-2.76-3.09-6.17-2.87-9.62v-7.8h6.32v7.68c-.17,2.79.6,5.56,2.18,7.86.83.97,1.85,1.75,3,2.28.71.35,1.5.53,2.3.53h0c1.35.02,2.69-.28,3.9-.88.81-.39,1.52-.98,2.06-1.7.82-1.04,1.29-2.31,1.34-3.64-2.02.05-3.97-.74-5.4-2.17-1.55-1.62-2.36-3.8-2.23-6.04-.11-2.79.89-5.51,2.78-7.57,1.85-1.95,5.64-2.93,8.64-2.93h10.11v10.79c0,2.35,1.04,3.52,3.11,3.52h3.46l.02,3.87ZM300.64,302.93c0,.68-.25,1.33-.73,1.82-.48.5-1.15.78-1.85.76-.7.02-1.37-.25-1.87-.73-.5-.48-.78-1.15-.76-1.85-.01-.7.26-1.38.76-1.87.49-.5,1.17-.78,1.87-.76.68,0,1.34.27,1.82.76.5.49.78,1.17.76,1.87h0ZM307.56,302.93c0,.68-.26,1.33-.73,1.82-.48.5-1.15.78-1.85.76-.7.02-1.37-.25-1.87-.73-.5-.48-.78-1.15-.76-1.85-.01-.7.26-1.38.76-1.87.49-.5,1.17-.78,1.87-.76.69,0,1.34.27,1.82.76.5.49.77,1.17.76,1.87h0Z"/>
          <path id="Path_439" class="st0" d="M372.1,286.85h-43.72v-3.87h13v-16.77l-.64-5.28,7.43-.47-.47,5.69v12.43c1.4-2.48,3.27-4.65,5.51-6.39,2.34-2.18,5.37-3.47,8.56-3.64,2.64-.11,5.24.63,7.42,2.11,1.88,1.3,2.97,3.46,2.9,5.75v10.44ZM365.78,282.98v-5.87c0-3.28,0-4.82-4.24-4.93-2.48-.06-5.25,1.47-8.32,4.4-2.09,1.73-3.74,3.92-4.84,6.39h17.4Z"/>
          <path id="Path_440" class="st0" d="M390.28,286.85h-5.38c-1.71.09-3.39-.52-4.63-1.7-1.19-1.27-1.8-2.96-1.7-4.7v-14.61l-.76-5.51,7.08-1.17v20.29c0,2.35,1.04,3.52,3.11,3.52h2.29v3.88Z"/>
          <path id="Path_441" class="st0" d="M420.83,286.85h-30.55v-3.87h14.95c-1.17-1.57-1.77-3.5-1.7-5.45-.09-2.41.77-4.76,2.4-6.54,1.59-1.7,3.84-2.61,6.16-2.5,2.79.16,5.45,1.23,7.57,3.05l-1.64,1.94c-.7-.94-1.77-1.54-2.94-1.64-3.48,0-5.22,2.01-5.22,6.04-.08,1.44.45,2.85,1.47,3.87.85.82,1.99,1.26,3.17,1.23h2.23l3.53-.59.58,4.46ZM414.09,261.81c0,.68-.27,1.34-.75,1.82-.49.5-1.16.78-1.86.76-.68,0-1.34-.26-1.83-.73-.51-.47-.8-1.15-.78-1.85-.01-.71.27-1.39.78-1.87.48-.49,1.14-.77,1.83-.76.69,0,1.35.27,1.83.76.51.49.8,1.17.78,1.87Z"/>
          <path id="Path_442" class="st0" d="M496.88,286.85h-40.39c-.79,0-1.58-.1-2.34-.29-.43,2.82-1.92,5.36-4.16,7.13-2.49,1.82-5.53,2.74-8.62,2.61-4.07,0-9.19-1.25-11.31-3.75-2.06-2.81-3.08-6.26-2.87-9.74v-7.8h6.32v7.68c0,3.36.56,6.17,2.21,7.98,1.25,1.84,3.33,2.93,5.55,2.93,1.96.1,3.81-.89,4.81-2.58,1.46-2.39,2.16-5.18,1.99-7.98v-7.45l-.76-5.69,7.08-1.17v9.97c0,2.85,1.04,4.28,3.11,4.28h39.4v3.88ZM442.92,275.13c0,.68-.27,1.34-.76,1.82-.49.5-1.17.78-1.87.76-.68,0-1.33-.25-1.82-.73-.51-.5-.79-1.19-.76-1.91,0-.69.27-1.34.76-1.82.47-.49,1.13-.77,1.82-.76.7-.01,1.38.26,1.87.76.5.49.78,1.17.76,1.87h0Z"/>
          <path id="Path_443" class="st0" d="M509.78,280.61c.09,1.68-.53,3.33-1.7,4.54-1.25,1.16-2.93,1.76-4.63,1.67h-6.57v-3.87h3.43c2.1,0,3.14-1.13,3.14-3.4v-4.21l-.7-5.51,7.02-1.12v11.9ZM507.49,293.75c0,.67-.28,1.32-.76,1.79-.48.52-1.16.8-1.87.79-.68,0-1.33-.25-1.82-.73-.51-.5-.79-1.19-.76-1.91,0-.69.27-1.34.76-1.82.47-.49,1.13-.77,1.82-.76.7-.01,1.38.26,1.87.76.5.49.78,1.17.76,1.87Z"/>
        </g>
      </g>
      <path id="Path_444" class="st0" d="M222.41,301.3c-6.15-5.86-13.9-9.76-22.27-11.22l-20.07-19.04c-8.03-7.62-18.68-11.86-29.75-11.86h-42.48l1.76,2.28c3.28,4.25,8.35,6.73,13.72,6.73h23.99c10.7-.02,21,4.09,28.75,11.47l10.3,9.78h-55.04l4.06,5.24c1.85,2.38,4.69,3.78,7.7,3.78h46.58c2.35,0,4.69.2,7.01.6,6.24,1.07,12.16,3.53,17.31,7.21,1.56,1.12,3.04,2.34,4.43,3.66l18.1,17.17h-73.04c-14.12.02-27.31-7.06-35.11-18.83l-26.78-40.24c-3.68-5.53-9.89-8.86-16.53-8.86h0l13.39,20.29c.14.22.26.45.41.66l24.25,36.5c8.07,12.17,21.71,19.49,36.31,19.47h99.7l-36.7-34.8Z"/>
      <rect id="Rectangle_2548" class="st0" x="272.46" y="251.02" width="2.25" height="93.23"/>
    </g>
  </g>
</svg>