<?xml version="1.0" encoding="UTF-8"?>
<svg id="Layer_1" xmlns="http://www.w3.org/2000/svg" version="1.1" viewBox="0 0 595.28 595.28">
  <!-- Generator: Adobe Illustrator 29.8.1, SVG Export Plug-In . SVG Version: 2.1.1 Build 2)  -->
  <defs>
    <style>
      .st0 {
        fill: #231f20;
      }
    </style>
  </defs>
  <g>
    <path class="st0" d="M150.98,297.38v44.96c3.75.65,6.97,1.04,9.82,1.04,14.21,0,21.32-7.63,21.32-22.74s-9.3-23.26-27.9-23.25h-3.24ZM150.98,294.29c16.53,0,24.8-6.59,24.8-19.77,0-11.89-7.75-19.25-18.09-19.25-2.28,0-4.54.35-6.72,1.03v37.98ZM134.05,346.09c5.3-.9,6.85-1.42,7.36-11.76v-69.37c0-4.78-.52-7.88-1.55-9.17-.9-1.29-2.85-2.2-5.56-2.58v-.65c3.75.13,7.24.26,10.33.26,5.17,0,12.53-.26,15.24-.26,8.39,0,14.86,2.07,19.12,6.2,4.26,4.13,6.46,9.17,6.46,14.98,0,9.69-5.56,17.18-17.83,20.41,7.88,1.03,14.08,4.13,18.34,9.3,4.39,5.04,6.59,10.98,6.59,17.57,0,7.49-2.32,13.69-6.97,18.6-4.65,4.78-11.24,7.23-19.63,7.23-2.45,0-5.68-.13-9.95-.26-4.27-.13-7.49-.13-9.82-.13-4.27,0-8.39.13-12.14.26v-.64Z"/>
    <path class="st0" d="M219.69,346.73c-7.62-.38-11.75-.38-19.38,0v-.64c2.2-.39,3.62-1.29,4.39-2.59.78-1.29,1.17-4.39,1.17-9.18v-75.83c0-5.03-.39-5.94-4-6.97v-.65c4.78-.38,8.78-1.29,12.27-2.85v86.29c0,4.78.39,7.88,1.16,9.17.77,1.29,2.19,2.2,4.39,2.59v.64Z"/>
    <path class="st0" d="M274.84,335.75c2.71-6.2,3.62-12.14,3.62-20.41,0-19.5-6.97-29.19-21.06-29.19-13.05,0-19.63,10.46-19.63,31.26,0,18.73,6.72,28.17,20.28,28.17,8.27,0,14.08-3.62,16.79-9.82h0ZM227.04,316.24c0-9.17,2.97-16.79,8.91-22.74,5.94-6.07,13.44-9.04,22.35-9.04s16.28,2.97,22.09,9.04c5.81,6.07,8.78,13.56,8.78,22.74,0,8.66-2.85,16.02-8.39,22.09-5.55,5.94-13.04,8.91-22.22,8.91-19.63,0-31.52-11.75-31.52-31"/>
    <path class="st0" d="M344.2,335.75c2.71-6.2,3.62-12.14,3.62-20.41,0-19.5-6.97-29.19-21.06-29.19-13.05,0-19.63,10.46-19.63,31.26,0,18.73,6.72,28.17,20.28,28.17,8.27,0,14.08-3.62,16.79-9.82h0ZM296.4,316.24c0-9.17,2.97-16.79,8.91-22.74,5.94-6.07,13.44-9.04,22.35-9.04s16.28,2.97,22.09,9.04c5.81,6.07,8.78,13.56,8.78,22.74,0,8.66-2.84,16.02-8.39,22.09-5.55,5.94-13.05,8.91-22.22,8.91-19.63,0-31.52-11.75-31.52-31"/>
    <path class="st0" d="M461.22,346.73c-7.62-.38-11.75-.38-19.37,0v-.64c2.19-.39,3.61-1.29,4.39-2.59.78-1.29,1.16-4.39,1.16-9.17v-26.23c0-14.07-4.78-21.06-14.21-21.06-5.81,0-12.01,2.32-18.6,6.85,1.55,3.23,2.32,7.49,2.32,12.92v27.52c0,4.78.39,7.88,1.17,9.17.77,1.29,2.19,2.2,4.39,2.59v.64c-7.62-.38-11.75-.38-19.38,0v-.64c2.2-.39,3.62-1.29,4.4-2.59.78-1.29,1.16-4.39,1.16-9.17v-26.87c0-7.88-1.29-13.31-4-16.15-2.71-2.84-6.07-4.26-10.21-4.26-5.56,0-10.85,1.68-15.63,5.04v42.24c0,4.78.39,7.88,1.16,9.17.77,1.29,2.19,2.2,4.39,2.59v.64c-7.62-.38-11.75-.38-19.37,0v-.64c2.2-.39,3.62-1.29,4.39-2.59.77-1.29,1.16-4.39,1.16-9.17v-39.4c0-5.03-.39-5.94-4-6.97v-.65c4.78-.39,8.78-1.29,12.27-2.85v5.17c5.55-3.49,11.75-5.17,18.86-5.17,7.62,0,13.05,2.59,16.02,7.75,7.36-5.17,14.98-7.75,22.73-7.75,12.79,0,19.25,7.62,19.25,23v26.87c0,4.78.39,7.88,1.16,9.17.78,1.29,2.2,2.2,4.39,2.59v.64Z"/>
  </g>
</svg>