<?xml version="1.0" encoding="UTF-8"?>
<svg id="Layer_1" xmlns="http://www.w3.org/2000/svg" version="1.1" viewBox="0 0 595.28 595.28">
  <!-- Generator: Adobe Illustrator 29.8.1, SVG Export Plug-In . SVG Version: 2.1.1 Build 2)  -->
  <defs>
    <style>
      .st0 {
        fill: #231f20;
      }
    </style>
  </defs>
  <path class="st0" d="M472.68,271.66c-11,0-20.37,2.26-28.08,6.75-7.72,4.49-13.27,10.81-16.66,18.91-2.16,5.15-2.77,9.87-1.85,14.06,1.1,4.45,3.82,7.64,8.25,9.57,4.02,1.73,10.79,2.62,20.24,2.62h33.66l3.36-8.23h-18.97c-9.14,0-15.23-1.18-18.26-3.53-3.31-2.54-2.94-8.44-.36-14.69,4.53-10.8,13.98-17.54,27.05-17.54h14.7l-3.37,8.13h11.16l6.67-16.04h-37.55ZM167.31,297.39c3.38-8.1,3.09-14.39-.87-18.89-3.96-4.48-11.45-6.74-22.44-6.74h-37.22l-3.36,8.12h25.62c13.07,0,16.86,6.51,12.35,17.3-2.6,6.24-4.91,11.98-10.35,14.53-4.98,2.34-10.12,3.03-19.27,3.03l-11.85-.02,8.85-21h-11.16l-12.57,29.9h33.73c9.46,0,16.92-.88,22.43-2.62,6.03-1.94,11.43-5.12,16.2-9.54,4.45-4.22,7.75-8.9,9.91-14.06ZM399.92,271.71v.04s-13.81,0-13.81,0l-53.09,49.68,20.75-49.67h-22.76l-27.49,21.54-14.15,11.62h-.65l6.66-16.94-8.12-16.23h-22.86l-20.78,49.76-11.98-49.76h-25.06l-55.34,51.85h13.83l14.14-13.56h34.86l2.78,13.56h37.05l13.39-32.05c.67-1.61,1.32-3.46,1.95-5.53.06,1.67.52,3.45,1.34,5.32l11.78,26.74h1.99l33.7-26.64c1.27-1,3.18-2.81,5.73-5.42-1.31,2.42-2.22,4.25-2.75,5.53l-13.39,32.05h24.46s25.79-.01,25.79-.01l13.99-13.62h36.22l2.9,13.62h12.73l-12.4-51.89h-11.41ZM186.51,302.94l22.06-21.11,3.98,21.11h-26.05ZM379.21,302.86l22.66-22.06,4.71,22.06h-27.36Z"/>
</svg>