<?xml version="1.0" encoding="UTF-8"?>
<svg id="Layer_1" xmlns="http://www.w3.org/2000/svg" version="1.1" viewBox="0 0 595.28 595.28">
  <!-- Generator: Adobe Illustrator 29.8.1, SVG Export Plug-In . SVG Version: 2.1.1 Build 2)  -->
  <defs>
    <style>
      .st0 {
        fill: #1c1e28;
      }
    </style>
  </defs>
  <g>
    <path class="st0" d="M467.11,254.65l2.85-10.26h17.11s23.16,0,23.16,25.29c0,23.83-22.45,23.1-22.45,23.1h-37.42l2.85-10.26h32.08s12.12,0,12.12-13.19-11.05-14.67-11.05-14.67h-19.25ZM419.87,255.75l13-5.5v25.29s-1.09,15.03-20.58,16.5h-233.96s-19.86.37-19.86-19.43v-48.39l13.36-5.13v51.32s-.72,10.26,9.75,11.36h229.98s7.58-.37,8.67-6.6v-19.43h-.35Z"/>
    <path class="st0" d="M394.32,305.22h13v13h-13v-13Z"/>
    <path class="st0" d="M405.52,305.22h12.4v13h-12.4v-13Z"/>
    <path class="st0" d="M146.59,248.29v45.74s0,19.09-24.53,19.09h-36.61l6.8-11.52h30.57s9.06-.72,9.06-7.57v-39.26l14.71-6.48h0Z"/>
    <path class="st0" d="M167.08,326.4v49.78h56.88v-11.8h-41.91v-8.48h24.32v-11.43h-24.32v-7.75h41.91v-10.32h-56.88Z"/>
    <path class="st0" d="M236.51,326.39h16.4l14.97,17.6,14.97-17.6h15.32l-24.59,26.76v22.36h-12.48v-21.63l-24.59-27.49Z"/>
    <path class="st0" d="M121.39,326.39h-36.35v49.12h34.93s26.73-1.1,26.73-23.46-19.6-25.66-25.3-25.66ZM118.54,364.14c-6.42,0-19.6.37-19.6.37v-27.86h21.74s12.48.73,12.48,13.19-8.2,14.3-14.61,14.3ZM324.07,326.39l-26.9,49.12h13.09l5.45-10.62h27.27l5.82,10.63h14.54l-27.63-49.12h-11.63ZM321.89,354.25l8-14.3,7.63,14.3h-15.63ZM392.5,326.39l-26.9,49.12h13.09l5.45-10.62h27.27l5.82,10.63h14.54l-27.63-49.12h-11.63ZM389.96,354.25l8-14.3,7.63,14.3h-15.63ZM488.85,358.28s17.82.36,17.82-16.5c0,0-.35-15.4-14.61-15.4h-43.84v49.12h13.55v-17.6h9.27l18.89,17.6h19.96l-21.03-17.23ZM461.77,347.65v-11h26.38s4.99.73,4.99,5.13c0,5.5-4.99,5.86-4.99,5.86h-26.38Z"/>
  </g>
</svg>