<?xml version="1.0" encoding="UTF-8"?>
<svg id="Layer_1" xmlns="http://www.w3.org/2000/svg" version="1.1" viewBox="0 0 595.28 595.28">
  <!-- Generator: Adobe Illustrator 29.8.1, SVG Export Plug-In . SVG Version: 2.1.1 Build 2)  -->
  <defs>
    <style>
      .st0 {
        fill: #231f20;
      }
    </style>
  </defs>
  <g>
    <polygon class="st0" points="411.79 332 397.41 332 379.54 298.83 361.11 331.86 350.79 331.99 381.15 279.04 352.54 228.11 380.76 253.39 427.46 198.43 382.16 278.37 411.79 332"/>
    <path class="st0" d="M152.12,332v-51.07l2.18-1.31c18.25-1.78,48.28-2.17,50.14,22.23,2.42,31.69-28.53,33.56-52.32,30.16ZM165.19,326.76c34.48,5.53,34.6-47.94,0-41.03v41.03Z"/>
    <path class="st0" d="M294.15,280.93l2.18-1.31c11.16-1.13,41.5-3.2,38.57,15.07-.96,6.01-4.6,6.75-8.51,10.24,4.47.49,10.17,3.84,11.12,8.5,4.82,23.6-29.14,20.25-43.37,18.57v-51.07ZM307.22,302.32c20.18,2.35,20.22-20.1,0-17.46v17.46ZM307.22,308.43v17.9c4.02,3.31,14.81-.19,16.77-5.02,4.64-11.44-8.27-14.19-16.77-12.87Z"/>
    <path class="st0" d="M236.64,279.62v32.74c0,1.27,2.18,7.82,3.09,9.13,4.24,6.12,15.7,5.97,19.77-.19.39-.59,2.41-5.14,2.41-5.44v-36.23h9.59v36.23c0,3.66-5.26,11.27-8.28,13.53-9.25,6.91-29.25,6.22-36.01-4.07-1.15-1.75-3.63-7.66-3.63-9.46v-36.23h13.07Z"/>
    <path class="st0" d="M241.63,376.05c0,11.45-9.27,20.74-20.7,20.74s-20.7-9.29-20.7-20.74,9.27-20.74,20.7-20.74,20.7,9.29,20.7,20.74ZM219.87,360.09c-13.35,2.23-11.9,32.06.65,32.03,15.41-.04,13.69-34.42-.65-32.03Z"/>
    <path class="st0" d="M288.92,395.73v-39.29c15.02-2.27,34.85-1.55,35.76,17.86.97,20.61-19.28,24.61-35.76,21.43ZM297.64,391.37c23.7,4.59,23.65-36.25,0-30.56v30.56Z"/>
    <polygon class="st0" points="160.83 356.45 160.83 373.03 178.26 373.03 178.26 356.45 187.85 356.45 187.85 395.73 178.26 395.73 178.26 378.27 160.83 378.27 160.83 395.73 152.12 395.73 152.12 356.45 160.83 356.45"/>
    <polygon class="st0" points="389.13 380.89 389.13 356.45 395.23 356.45 395.23 395.73 390 395.29 369.09 371.29 369.09 395.73 362.99 395.73 362.99 356.45 368.72 357.26 389.13 380.89"/>
    <path class="st0" d="M443.16,392.68c-11.34,7.14-29.46,5.71-33.74-8.98-6.34-21.77,15.12-34.43,33.74-25.49l-3.03,5.13c-26.39-15.14-31.3,35.04-4.32,27.22l.38-11.41h-7.85s0-4.36,0-4.36h14.81v17.9Z"/>
    <rect class="st0" x="430.09" y="279.62" width="13.07" height="52.38"/>
    <path class="st0" d="M262.78,356.45v34.05h13.51c.19,0,.99-1.31,1.3-.87v6.11s-23.52,0-23.52,0v-39.29h8.71Z"/>
    <rect class="st0" x="338.59" y="356.45" width="8.71" height="39.29"/>
  </g>
</svg>