<svg preserveAspectRatio="xMidYMid meet" viewBox="0 0 169 70" fill="none" xmlns="http://www.w3.org/2000/svg">
<g id="ellington-properties-logo-blue_en 1">
<path id="Vector" d="M21.125 33.8408V48.0928H30.5467V46.2616H23.215V41.9832H28.9497V40.152H23.215V35.672H30.5467V33.8408H21.125Z" fill="var(--fill-0, black)"/>
<path id="Vector_2" d="M35.8731 33.8408V48.0928H43.4499V46.2616H37.9828V33.8408H35.8731Z" fill="var(--fill-0, black)"/>
<path id="Vector_3" d="M48.7762 33.8408V48.0928H56.3559V46.2616H50.8859V33.8408H48.7762Z" fill="var(--fill-0, black)"/>
<path id="Vector_4" d="M63.7891 33.8408H61.6822V48.0928H63.7891V33.8408Z" fill="var(--fill-0, black)"/>
<path id="Vector_5" d="M93.964 33.6392C88.494 33.6392 86.8773 37.9736 86.8773 40.9472C86.8773 44.002 88.494 48.2804 93.964 48.2804C96.2568 48.2804 97.8763 47.5048 99.1016 46.2812V41.174H93.9837V43.0052H96.9919V45.4692C96.1058 46.0858 95.0454 46.4065 93.964 46.3848C89.6404 46.3848 89.0038 42.3136 89.0038 40.9472C89.0038 39.5808 89.6404 35.49 93.964 35.49C95.3356 35.5005 96.649 36.0418 97.6257 36.9992L98.9382 35.6552C97.7074 34.3084 96.3751 33.6392 93.9612 33.6392" fill="var(--fill-0, black)"/>
<path id="Vector_6" d="M103.098 33.8408V35.672H107.256V48.0928H109.368V35.672H113.565V33.8408H103.098Z" fill="var(--fill-0, black)"/>
<path id="Vector_7" d="M123.829 33.6392C118.359 33.6392 116.742 37.9736 116.742 40.9472C116.742 44.002 118.359 48.2804 123.829 48.2804C129.299 48.2804 130.916 44.002 130.916 40.9472C130.916 37.9736 129.296 33.6392 123.829 33.6392ZM123.829 46.424C119.506 46.424 118.869 42.3136 118.869 40.9472C118.869 39.5808 119.506 35.49 123.829 35.49C128.153 35.49 128.764 39.5864 128.764 40.9472C128.764 42.308 128.158 46.424 123.829 46.424Z" fill="var(--fill-0, black)"/>
<path id="Vector_8" d="M81.32 48.2048L81.551 48.0956V33.8408H79.43V43.3132L68.8816 32.8272V35.3472C68.8688 35.5067 68.8932 35.6669 68.9528 35.8155C69.0124 35.9641 69.1056 36.097 69.2252 36.204L69.9266 36.9012V48.1012H72.0391V38.9844L81.32 48.2048Z" fill="var(--fill-0, black)"/>
<path id="Vector_9" d="M53.7364 20.7816L63.7891 10.7884V12.5244C63.8012 12.6603 63.7798 12.7971 63.7268 12.923C63.6738 13.0489 63.5908 13.16 63.4849 13.2468L59.8964 16.814L63.4849 20.3812C63.5908 20.468 63.6738 20.5791 63.7268 20.705C63.7798 20.8309 63.8012 20.9677 63.7891 21.1036V22.8396L62.8032 21.8596L59.8964 24.7492L63.4849 28.3164C63.5904 28.4029 63.6732 28.5136 63.7261 28.6389C63.7791 28.7643 63.8007 28.9005 63.7891 29.036V30.7748L53.7364 20.7816ZM55.9052 20.7816L58.812 23.6712L61.7188 20.7816L58.812 17.892L55.9052 20.7816Z" fill="var(--fill-0, black)"/>
<path id="Vector_10" d="M147.624 48.2048L147.855 48.0956V33.8408H145.743V43.3132L136.448 34.0732L136.242 34.1712V48.0984H138.355V38.9844L147.624 48.2048Z" fill="var(--fill-0, black)"/>
<path id="Vector_11" d="M72.5292 54.4208C72.3663 54.3181 72.1859 54.246 71.9968 54.208C71.8191 54.17 71.6378 54.1503 71.456 54.1492H69.9773V59.08H70.6335V56.84H71.5574C71.748 56.8407 71.9377 56.8143 72.1207 56.7616C72.2991 56.7135 72.4664 56.6318 72.6137 56.5208C72.759 56.4088 72.8766 56.2651 72.9573 56.1008C73.0478 55.9131 73.0922 55.7068 73.0869 55.4988C73.0947 55.2676 73.0402 55.0385 72.9291 54.8352C72.8311 54.6639 72.6917 54.5196 72.5235 54.4152M72.4334 55.4988C72.4378 55.6181 72.4116 55.7366 72.3574 55.8432C72.3114 55.9314 72.2447 56.0072 72.163 56.0644C72.078 56.1231 71.9823 56.165 71.8813 56.1876C71.768 56.2157 71.6517 56.2298 71.5349 56.2296H70.6335V54.754H71.5095C71.6274 54.7537 71.7448 54.7688 71.8588 54.7988C71.9655 54.8242 72.0667 54.8688 72.1574 54.9304C72.2416 54.9926 72.3116 55.0718 72.363 55.1628C72.4167 55.2665 72.4428 55.3822 72.439 55.4988" fill="var(--fill-0, black)"/>
<path id="Vector_12" d="M80.5567 56.7196C80.7112 56.6732 80.8555 56.5981 80.982 56.4984C81.1173 56.3938 81.2279 56.2609 81.3059 56.1092C81.3991 55.9185 81.4436 55.7079 81.4355 55.496C81.4404 55.3036 81.4029 55.1125 81.3256 54.936C81.2578 54.7895 81.1621 54.6573 81.0439 54.5468C80.9312 54.4465 80.8015 54.3669 80.6609 54.3116C80.53 54.263 80.3953 54.2255 80.2581 54.1996C80.1379 54.1784 80.0166 54.1644 79.8947 54.1576H79.6356H78.3033V59.08H78.9596V56.84H79.6187L80.9594 59.08H81.6833L80.275 56.7784C80.3701 56.7603 80.4642 56.7369 80.5567 56.7084M80.7426 55.7228C80.7171 55.8106 80.6696 55.8906 80.6045 55.9552C80.5181 56.0396 80.4143 56.1046 80.3003 56.1456C80.1303 56.2042 79.9507 56.2308 79.7708 56.224H78.9258V54.7484H79.7708C79.9507 54.7416 80.1303 54.7682 80.3003 54.8268C80.414 54.8685 80.5176 54.9334 80.6045 55.0172C80.6689 55.0823 80.7163 55.1621 80.7426 55.2496C80.7951 55.403 80.7951 55.5694 80.7426 55.7228Z" fill="var(--fill-0, black)"/>
<path id="Vector_13" d="M90.8375 54.7652C90.6074 54.5315 90.3312 54.3475 90.0263 54.2248C89.3583 53.9636 88.6156 53.9636 87.9476 54.2248C87.643 54.3482 87.367 54.5321 87.1364 54.7652C86.9093 55.0023 86.7304 55.2809 86.6097 55.5856C86.358 56.2536 86.358 56.9896 86.6097 57.6576C86.7286 57.964 86.9077 58.2438 87.1364 58.4808C87.3663 58.7148 87.6425 58.8988 87.9476 59.0212C88.617 59.2751 89.3569 59.2751 90.0263 59.0212C90.3314 58.8988 90.6076 58.7148 90.8375 58.4808C91.0672 58.2446 91.2463 57.9645 91.3642 57.6576C91.4931 57.3274 91.5572 56.9757 91.5529 56.6216C91.5558 56.2676 91.4918 55.9161 91.3642 55.5856C91.2456 55.2799 91.0665 55.0009 90.8375 54.7652ZM88.9869 54.6392C89.2593 54.635 89.5297 54.6864 89.7812 54.7904C90.0089 54.8854 90.2134 55.0276 90.3812 55.2076C90.5507 55.3884 90.6811 55.6019 90.7643 55.8348C90.9444 56.3431 90.9444 56.8973 90.7643 57.4056C90.6811 57.6385 90.5507 57.852 90.3812 58.0328C90.2134 58.2128 90.0089 58.355 89.7812 58.45C89.2702 58.6516 88.7009 58.6516 88.1898 58.45C87.963 58.3536 87.7587 58.2116 87.5899 58.0328C87.4222 57.8511 87.2929 57.6379 87.2096 57.4056C87.0295 56.8973 87.0295 56.3431 87.2096 55.8348C87.2929 55.6025 87.4222 55.3893 87.5899 55.2076C87.7587 55.0288 87.963 54.8868 88.1898 54.7904C88.4424 54.6867 88.7137 54.6352 88.9869 54.6392Z" fill="var(--fill-0, black)"/>
<path id="Vector_14" d="M99.3438 54.4208C99.1799 54.3181 98.9986 54.246 98.8087 54.208C98.6309 54.1698 98.4497 54.1501 98.2679 54.1492H96.7891V59.08H97.4567V56.84H98.3805C98.5711 56.8407 98.7608 56.8143 98.9439 56.7616C99.1222 56.7135 99.2895 56.6318 99.4368 56.5208C99.5822 56.4081 99.7005 56.2646 99.7832 56.1008C99.8714 55.9125 99.9148 55.7065 99.91 55.4988C99.9178 55.2676 99.8633 55.0385 99.7522 54.8352C99.6553 54.664 99.5168 54.5196 99.3495 54.4152M99.2565 55.4988C99.26 55.6178 99.2349 55.7358 99.1833 55.8432C99.1363 55.9316 99.0687 56.0074 98.9861 56.0644C98.9011 56.1231 98.8054 56.165 98.7044 56.1876C98.5911 56.2157 98.4748 56.2298 98.358 56.2296H97.4567V54.754H98.3326C98.4514 54.7539 98.5698 54.769 98.6847 54.7988C98.7904 54.8248 98.8906 54.8693 98.9805 54.9304C99.0647 54.9926 99.1348 55.0718 99.1861 55.1628C99.2398 55.2665 99.266 55.3822 99.2621 55.4988" fill="var(--fill-0, black)"/>
<path id="Vector_15" d="M105.757 56.8456H108.07V56.2352H105.757V54.7596H108.225V54.1492H105.101V59.0912H108.332V58.4808H105.757V56.8456Z" fill="var(--fill-0, black)"/>
<path id="Vector_16" d="M115.816 56.7196C115.971 56.6726 116.116 56.5976 116.244 56.4984C116.379 56.3938 116.49 56.2609 116.568 56.1092C116.661 55.9185 116.705 55.7079 116.697 55.496C116.702 55.3037 116.664 55.1127 116.587 54.936C116.519 54.7907 116.423 54.6596 116.306 54.5496C116.192 54.4487 116.062 54.369 115.92 54.3144C115.675 54.2257 115.417 54.1747 115.157 54.1632H114.895H113.54V59.08H114.193V56.84H114.855L116.193 59.08H116.945L115.537 56.7812C115.632 56.7618 115.726 56.7375 115.819 56.7084M116.007 55.7228C115.98 55.8106 115.932 55.8904 115.866 55.9552C115.78 56.0384 115.677 56.1032 115.565 56.1456C115.395 56.2029 115.215 56.2294 115.035 56.224H114.19V54.7484H115.035C115.215 54.743 115.395 54.7695 115.565 54.8268C115.677 54.8692 115.78 54.934 115.866 55.0172C115.931 55.0812 115.98 55.16 116.007 55.2468C116.031 55.324 116.044 55.4041 116.047 55.4848C116.045 55.5656 116.032 55.6457 116.007 55.7228Z" fill="var(--fill-0, black)"/>
<path id="Vector_17" d="M121.41 54.7596H123.038V59.0912H123.691V54.7596H125.319V54.1492H121.41V54.7596Z" fill="var(--fill-0, black)"/>
<path id="Vector_18" d="M130.947 54.1492H130.293V59.0912H130.947V54.1492Z" fill="var(--fill-0, black)"/>
<path id="Vector_19" d="M137.149 56.8456H139.462V56.2352H137.149V54.7596H139.617V54.1492H136.493V59.0912H139.724V58.4808H137.149V56.8456Z" fill="var(--fill-0, black)"/>
<path id="Vector_20" d="M147.672 57.0248C147.544 56.8479 147.376 56.7031 147.182 56.602C146.988 56.5013 146.783 56.4233 146.571 56.3696C146.373 56.3193 146.179 56.2556 145.991 56.1792C145.833 56.1173 145.69 56.0217 145.574 55.8992C145.463 55.767 145.408 55.5976 145.419 55.426C145.415 55.3058 145.442 55.1867 145.495 55.0788C145.543 54.9836 145.613 54.9003 145.698 54.8352C145.79 54.7676 145.894 54.7173 146.005 54.6868C146.29 54.5992 146.597 54.6171 146.869 54.7372C147.012 54.8155 147.135 54.9257 147.227 55.0592L147.289 55.1432L147.852 54.7456L147.788 54.6616C147.631 54.4439 147.416 54.2734 147.168 54.1688C146.73 53.9978 146.247 53.978 145.796 54.1128C145.608 54.1691 145.432 54.2582 145.275 54.376C145.123 54.496 144.998 54.6468 144.909 54.8184C144.816 55.0121 144.77 55.2253 144.777 55.44C144.771 55.6475 144.811 55.8537 144.892 56.0448C144.961 56.2028 145.065 56.3435 145.196 56.4564C145.322 56.5662 145.465 56.6551 145.619 56.7196C145.765 56.7812 145.92 56.84 146.078 56.8904C146.236 56.9408 146.382 56.9856 146.526 57.036C146.656 57.0796 146.781 57.1359 146.9 57.204C146.999 57.2609 147.083 57.3394 147.145 57.4336C147.207 57.5407 147.238 57.663 147.233 57.7864C147.234 57.9025 147.209 58.0173 147.16 58.1224C147.111 58.2214 147.042 58.3091 146.957 58.38C146.866 58.4549 146.762 58.5119 146.65 58.548C146.527 58.5904 146.397 58.6112 146.267 58.6096C146.063 58.6133 145.862 58.5671 145.681 58.4752C145.508 58.3812 145.365 58.2405 145.27 58.0692L145.213 57.9712L144.605 58.3744L144.67 58.4612C144.851 58.7203 145.102 58.924 145.394 59.0492C145.682 59.1643 145.99 59.2223 146.3 59.22C146.501 59.2205 146.701 59.1894 146.892 59.1276C147.078 59.0674 147.251 58.9724 147.402 58.8476C147.55 58.7228 147.67 58.5682 147.754 58.394C147.844 58.2022 147.889 57.9925 147.886 57.7808C147.901 57.5147 147.83 57.251 147.683 57.0276" fill="var(--fill-0, black)"/>
</g>
</svg>
