<?xml version="1.0" encoding="UTF-8"?>
<svg id="Layer_1" xmlns="http://www.w3.org/2000/svg" version="1.1" viewBox="82 213 432 172">
  <!-- Generator: Adobe Illustrator 29.8.1, SVG Export Plug-In . SVG Version: 2.1.1 Build 2)  -->
  <defs>
    <style>
      .st0 {
        fill: #231f20;
      }
    </style>
  </defs>
  <path class="st0" d="M85.04,341.8h31.6v-6.18h-24.6v-14.43h19.24v-6.18h-19.24v-15.12h24.6v-6.18h-31.6v48.09ZM284.39,370.87v.04c.52-.16,1-.41,1.43-.74.45-.35.83-.8,1.08-1.31.31-.65.46-1.35.44-2.07.02-.65-.11-1.29-.37-1.89-.23-.5-.54-.94-.94-1.31-.38-.34-.81-.61-1.28-.8-.44-.16-.89-.29-1.35-.38-.4-.07-.81-.12-1.22-.14h-5.34v16.61h2.2v-7.56h2.21l4.5,7.56h2.43l-4.73-7.77c.32-.06.64-.14.94-.24ZM278.92,369.24v-4.97h2.84c.6-.03,1.2.06,1.77.26.38.14.73.36,1.02.64.22.22.38.49.46.78.18.52.18,1.08,0,1.6-.09.3-.24.57-.46.78-.29.29-.64.51-1.02.64-.57.2-1.17.29-1.77.26h-2.84ZM141.59,293.71h-7.08v48.09h25.42v-6.18h-18.34v-41.91ZM221.08,341.8h7.07v-48.09h-7.07v48.09ZM255.82,341.83v-30.76l31.13,31.11.78-.37v-48.1h-7.12v31.97l-35.38-35.39v8.5c-.09,1.1.34,2.16,1.15,2.89l2.35,2.35v37.79h7.09ZM228.15,283.37v-5.86c.08-.93-.3-1.84-1.02-2.43l-12.04-12.04,9.75-9.75,3.31,3.31v-5.86c.08-.93-.3-1.84-1.02-2.43l-12.04-12.04,12.04-12.04c.72-.6,1.1-1.51,1.02-2.44v-5.86l-33.72,33.72,33.72,33.72ZM221.2,249.65l-9.75,9.75-9.75-9.75,9.75-9.75,9.75,9.75ZM184.87,293.71h-7.08v48.09h25.43v-6.18h-18.35v-41.91ZM257.44,363.13l.02.02c-.55-.35-1.15-.59-1.79-.72-.6-.13-1.21-.19-1.82-.2h-4.96v16.64h2.2v-7.56h3.1c.64,0,1.28-.09,1.89-.26.59-.16,1.16-.44,1.65-.81.49-.38.88-.86,1.15-1.41.3-.64.45-1.33.43-2.03.03-.78-.16-1.55-.53-2.24-.33-.58-.79-1.06-1.36-1.42ZM257.14,366.79c.02.4-.08.8-.25,1.16-.16.3-.38.56-.65.75-.29.19-.6.34-.94.42-.38.09-.77.14-1.17.14h-3.02v-4.98h2.94c.39,0,.79.05,1.17.15.36.09.7.24,1,.44.29.21.52.48.69.79.18.35.27.74.26,1.13h-.02ZM347.43,363.13l-.02.02c-.55-.35-1.15-.59-1.79-.72-.6-.13-1.21-.2-1.82-.2h-4.96v16.64h2.24v-7.56h3.1c.64,0,1.28-.09,1.89-.26.59-.16,1.16-.44,1.65-.81.49-.38.88-.86,1.16-1.41.3-.64.44-1.33.43-2.03.03-.78-.16-1.55-.53-2.24-.32-.58-.79-1.06-1.35-1.42ZM347.11,366.79c.01.4-.07.8-.25,1.16-.16.3-.38.56-.66.75-.29.19-.6.34-.94.42-.38.09-.77.14-1.17.14h-3.02v-4.98h2.94c.39,0,.79.05,1.18.15.36.09.69.24.99.44.29.21.52.48.69.79.18.35.27.74.25,1.13h-.02ZM451.22,378.91h2.19v-16.68h-2.19v16.68ZM421.42,364.3h5.46v14.62h2.19v-14.62h5.47v-2.06h-13.12v2.06ZM478.26,311.07l31.09,31.11.78-.37v-48.1h-7.09v31.97l-31.18-31.18-.69.33v46.99h7.09v-30.75ZM429.54,293.03c-18.35,0-23.77,14.63-23.77,24.66s5.42,24.74,23.77,24.74,23.77-14.44,23.77-24.74-5.43-24.66-23.77-24.66ZM429.54,336.17c-14.5,0-16.64-13.87-16.64-18.48s2.14-18.41,16.64-18.41,16.55,13.82,16.55,18.41-2.03,18.48-16.55,18.48ZM474.22,371.34h7.76v-2.06h-7.76v-4.98h8.28v-2.06h-10.48v16.67h10.84v-2.06h-8.64v-5.52ZM509.55,371.95h-.04c-.43-.61-.99-1.1-1.65-1.43-.65-.34-1.34-.6-2.05-.79-.66-.17-1.31-.38-1.94-.64-.53-.21-1.01-.53-1.4-.94-.37-.45-.56-1.02-.52-1.6-.01-.4.08-.81.25-1.17.16-.32.4-.6.68-.82.31-.23.66-.4,1.03-.5.96-.3,1.99-.24,2.9.17.48.26.89.64,1.2,1.09l.21.28,1.89-1.34-.22-.29c-.53-.73-1.25-1.31-2.08-1.66-1.47-.58-3.09-.65-4.6-.19-.63.19-1.22.49-1.75.88-.51.4-.93.92-1.23,1.49-.31.65-.46,1.38-.44,2.1-.02.7.11,1.4.39,2.04.23.53.58,1.01,1.02,1.39.42.37.9.67,1.41.89.49.21,1.01.4,1.54.58.53.17,1.02.32,1.5.49.44.15.86.33,1.26.57.33.19.61.46.83.78.21.36.31.77.29,1.19,0,.39-.08.78-.25,1.13-.16.33-.39.63-.68.87-.3.25-.65.44-1.03.57-.41.14-.85.21-1.28.21-.68.01-1.35-.14-1.96-.45-.58-.32-1.06-.79-1.38-1.37l-.19-.33-2.04,1.36.22.29c.61.87,1.45,1.56,2.43,1.99.97.39,2,.58,3.04.58.67,0,1.34-.1,1.99-.31.63-.2,1.2-.52,1.71-.94.5-.42.9-.94,1.18-1.53.3-.65.45-1.35.44-2.07.05-.9-.19-1.79-.68-2.54ZM402.67,370.87v.04c.51-.16,1-.41,1.42-.74.45-.35.83-.8,1.09-1.31.31-.65.46-1.35.43-2.07.02-.65-.11-1.29-.37-1.89-.23-.49-.55-.93-.94-1.31-.38-.34-.82-.61-1.29-.79-.83-.3-1.69-.47-2.56-.51h-5.42v16.59h2.19v-7.56h2.22l4.49,7.56h2.52l-4.72-7.76c.32-.06.63-.15.94-.25ZM397.2,369.24v-4.97h2.84c.6-.02,1.2.07,1.77.26.38.14.72.36,1.01.64.22.22.38.48.47.77.08.26.12.53.13.8-.01.28-.05.54-.13.8-.09.3-.25.57-.47.78-.29.28-.63.5-1.01.64-.57.19-1.17.29-1.77.26h-2.84ZM329.35,293.03s0,0,0,0c0,0,0,0,0,0h-.01ZM318.88,364.32c-.77-.79-1.7-1.41-2.72-1.82-2.24-.88-4.73-.88-6.97,0-1.03.42-1.95,1.04-2.72,1.82-.76.8-1.36,1.74-1.76,2.77-.84,2.25-.84,4.74,0,6.99.4,1.03,1,1.97,1.76,2.78.77.79,1.7,1.41,2.72,1.82,2.24.85,4.73.85,6.97,0,1.03-.42,1.95-1.04,2.72-1.82.77-.8,1.37-1.74,1.76-2.78.43-1.12.65-2.3.63-3.5.01-1.2-.2-2.38-.63-3.5-.4-1.03-1-1.97-1.76-2.77ZM318.63,373.22c-.28.79-.72,1.51-1.28,2.11-.56.61-1.25,1.09-2.01,1.41-1.72.68-3.63.68-5.34,0-.76-.32-1.45-.8-2.01-1.41-.56-.61-.99-1.33-1.27-2.11-.6-1.72-.6-3.58,0-5.3.28-.78.71-1.51,1.27-2.11.57-.6,1.25-1.08,2.01-1.41.85-.35,1.76-.52,2.68-.51.91-.02,1.82.16,2.67.51.76.32,1.45.8,2.01,1.41.57.61,1,1.33,1.28,2.11.6,1.72.6,3.58,0,5.3ZM346.59,318.46h-17.17v6.18h10.09v8.31c-2.97,2.08-6.53,3.16-10.16,3.09-14.5,0-16.64-13.74-16.64-18.35s2.14-18.41,16.64-18.41c4.6.03,9,1.86,12.28,5.09l4.4-4.54c-4.13-4.54-8.6-6.8-16.69-6.8-18.34,0-23.77,14.63-23.77,24.66s5.42,24.74,23.77,24.74c7.69,0,13.12-2.62,17.23-6.74v-17.23ZM368.92,371.34h7.76v-2.06h-7.76v-4.98h8.28v-2.06h-10.48v16.67h10.84v-2.06h-8.64v-5.52ZM395.11,293.71h-35.11v6.18h13.95v41.91h7.08v-41.91h14.08v-6.18Z"/>
</svg>