<svg preserveAspectRatio="xMidYMid meet" viewBox="0 0 110.911 21.9061" fill="none" xmlns="http://www.w3.org/2000/svg">
<g id="Page-1">
<path id="Shape" d="M16.0905 19.7129L15.761 21.8924H0C0.652134 20.3846 0.610946 19.5347 0.610946 18.445V3.46308C0.610946 2.40763 0.652134 1.4824 0 0.0157301H4.72282H15.3766L15.4041 2.23629C15.1158 2.11978 14.8824 2.01698 14.6696 1.92103C14.0998 1.70857 13.379 1.50981 12.6308 1.51666C11.4364 1.51666 6.42523 1.51666 4.20111 1.51666V10.0836H14.093L13.6056 11.7696H4.20111V20.3435C6.02022 20.3435 11.8345 20.3435 13.1182 20.3435C14.6215 20.3709 16.118 19.521 16.118 19.521L16.0768 19.7061C16.0768 19.7129 16.0837 19.7129 16.0905 19.7129ZM39.8145 21.8924C40.0273 20.8164 40.0273 19.2949 39.8557 18.0544L38.4553 7.74657L30.8082 21.8855H29.3529L21.5822 7.10919L20.072 18.2805C19.9072 19.569 19.8592 21.2002 19.9965 21.8924H17.2644C17.793 20.7752 17.9234 20.2886 18.1705 18.4519L20.6417 0.0157301H21.898L30.966 17.2182L40.0273 0.0157301H40.9746L43.5282 18.4107C43.7822 20.2407 43.9744 20.7684 44.4824 21.8924H39.8145ZM62.8314 21.8924L59.1931 13.8805H51.8755L48.2853 21.8924H47.9764H45.4434H45.4297C46.3358 20.7684 46.6447 20.2475 47.2831 18.8494L55.7677 0.0157301H56.7219L65.0692 18.3217C65.9616 20.1104 66.3803 20.6656 67.6571 21.8924H62.8314ZM85.7247 21.8924L82.0865 13.8805H74.7688L71.1787 21.8924H70.8766H68.3367H68.323C69.2291 20.7684 69.538 20.2475 70.1764 18.8494L78.661 0.0157301H79.6152L87.9694 18.3217C88.8618 20.1104 89.2805 20.6656 90.5573 21.8924H85.7247ZM106.469 21.9061C104.28 19.9117 101.445 17.2662 97.8955 13.0718C96.8796 11.8861 96.1657 11.7354 95.7057 11.7079V18.445C95.7057 19.5279 95.7057 20.3846 96.3236 21.8924H91.5046C92.1568 20.3846 92.1156 19.5347 92.1156 18.445V3.44938C92.1156 2.39392 92.1568 1.46869 91.5046 0.00202298H96.2275C99.4538 0.00202298 107.08 -0.285828 107.08 6.00576C107.08 9.32975 104.437 11.1185 101.335 11.5709L100.415 11.66C100.415 11.66 110.478 21.4812 110.911 21.9061H106.469ZM100.765 10.3167L100.758 10.3235C102.79 9.55592 103.476 7.63006 103.408 5.99891C103.332 4.42944 102.625 1.01635 95.7126 1.2905V10.6182C95.7126 10.6182 99.5842 10.8307 100.669 10.3578C100.731 10.3304 100.765 10.3167 100.765 10.3167ZM75.469 12.3522H81.3794L78.4002 5.82071L75.469 12.3522ZM52.5826 12.3522H58.4929L55.5137 5.82071L52.5826 12.3522Z" fill="var(--fill-0, black)"/>
</g>
</svg>
