<?xml version="1.0" encoding="UTF-8"?>
<svg id="Layer_1" xmlns="http://www.w3.org/2000/svg" version="1.1" viewBox="0 0 595.28 595.28">
  <!-- Generator: Adobe Illustrator 29.8.1, SVG Export Plug-In . SVG Version: 2.1.1 Build 2)  -->
  <defs>
    <style>
      .st0 {
        fill: #231f20;
      }
    </style>
  </defs>
  <g id="Page-1">
    <path id="Shape" class="st0" d="M146.73,331.27l-1.26,8.37h-60.42c2.5-5.79,2.34-9.05,2.34-13.24v-57.53c0-4.05.16-7.61-2.34-13.24h58.95l.11,8.53c-1.11-.45-2-.84-2.82-1.21-2.18-.82-4.95-1.58-7.82-1.55h-32.32v32.9h37.92l-1.87,6.47h-36.05v32.92h34.19c5.76.11,11.5-3.16,11.5-3.16l-.16.71s.03.03.05.03ZM237.68,339.64c.82-4.13.82-9.97.16-14.74l-5.37-39.58-29.32,54.29h-5.58l-29.79-56.74-5.79,42.9c-.63,4.95-.82,11.21-.29,13.87h-10.47c2.03-4.29,2.53-6.16,3.47-13.21l9.47-70.79h4.82l34.76,66.05,34.74-66.05h3.63l9.79,70.63c.97,7.03,1.71,9.05,3.66,13.37h-17.9ZM325.91,339.64l-13.95-30.76h-28.05l-13.76,30.76h-10.95c3.47-4.32,4.66-6.32,7.11-11.68l32.53-72.32h3.66l32,70.29c3.42,6.87,5.03,9,9.92,13.71h-18.5ZM413.68,339.64l-13.95-30.76h-28.05l-13.76,30.76h-10.95c3.47-4.32,4.66-6.32,7.11-11.68l32.53-72.32h3.66l32.03,70.29c3.42,6.87,5.03,9,9.92,13.71h-18.53ZM493.21,339.7c-8.39-7.66-19.26-17.82-32.87-33.92-3.89-4.55-6.63-5.13-8.39-5.24v25.87c0,4.16,0,7.45,2.37,13.24h-18.47c2.5-5.79,2.34-9.05,2.34-13.24v-57.58c0-4.05.16-7.61-2.34-13.24h18.11c12.37,0,41.61-1.11,41.61,23.05,0,12.76-10.13,19.63-22.03,21.37l-3.53.34s38.58,37.71,40.24,39.34h-17.03ZM471.34,295.19l-.03.03c7.79-2.95,10.42-10.34,10.16-16.61-.29-6.03-3-19.13-29.5-18.08v35.82s14.84.82,19-1c.24-.11.37-.16.37-.16ZM374.36,303.01h22.66l-11.42-25.08-11.24,25.08ZM286.62,303.01h22.66l-11.42-25.08-11.24,25.08Z"/>
  </g>
</svg>