<?xml version="1.0" encoding="UTF-8"?>
<svg id="Layer_1" xmlns="http://www.w3.org/2000/svg" version="1.1" viewBox="152 224 292 149">
  <!-- Generator: Adobe Illustrator 29.8.1, SVG Export Plug-In . SVG Version: 2.1.1 Build 2)  -->
  <defs>
    <style>
      .st0 {
        fill: #231f20;
      }
    </style>
  </defs>
  <g>
    <path class="st0" d="M167.57,350.94c-6.42-1.46-12.04,4.16-10.69,10.69.68,3.26,3.38,5.85,6.64,6.64,6.42,1.46,12.16-4.16,10.69-10.69-.79-3.26-3.38-5.85-6.64-6.64Z"/>
    <path class="st0" d="M167.57,227.01c-6.53-1.46-12.16,4.16-10.69,10.58.68,3.26,3.38,5.85,6.64,6.64,6.42,1.46,12.16-4.16,10.69-10.69-.79-3.26-3.38-5.85-6.64-6.53Z"/>
    <path class="st0" d="M167.57,257.17c-6.53-1.46-12.16,4.16-10.69,10.58.68,3.26,3.38,5.85,6.64,6.64,6.42,1.46,12.04-4.16,10.69-10.69-.79-3.15-3.38-5.85-6.64-6.53Z"/>
    <path class="st0" d="M167.57,288.91c-6.53-1.35-12.16,4.28-10.69,10.69.68,3.26,3.38,5.85,6.64,6.64,6.42,1.46,12.16-4.16,10.69-10.69-.79-3.26-3.38-5.85-6.64-6.64Z"/>
    <path class="st0" d="M167.57,320.77c-6.42-1.46-12.16,4.16-10.69,10.69.68,3.26,3.38,5.85,6.64,6.64,6.42,1.46,12.04-4.16,10.69-10.69-.79-3.26-3.38-5.97-6.64-6.64Z"/>
    <path class="st0" d="M199.32,288.91c-6.42-1.46-12.04,4.16-10.69,10.69.68,3.26,3.38,5.85,6.64,6.64,6.42,1.46,12.16-4.16,10.69-10.69-.79-3.26-3.38-5.85-6.64-6.64Z"/>
    <path class="st0" d="M231.17,288.91c-6.42-1.46-12.16,4.16-10.69,10.69.68,3.26,3.38,5.85,6.64,6.64,6.42,1.46,12.04-4.16,10.69-10.69-.79-3.26-3.38-5.85-6.64-6.64Z"/>
    <path class="st0" d="M336.41,350.94c-6.42-1.46-12.04,4.16-10.69,10.69.68,3.26,3.38,5.85,6.64,6.64,6.42,1.46,12.16-4.16,10.69-10.69-.79-3.26-3.49-5.85-6.64-6.64Z"/>
    <path class="st0" d="M336.41,227.01c-6.42-1.46-12.04,4.16-10.69,10.69.68,3.26,3.38,5.85,6.64,6.64,6.42,1.46,12.16-4.16,10.69-10.69-.79-3.38-3.49-5.97-6.64-6.64Z"/>
    <path class="st0" d="M336.42,257.17c-6.42-1.46-12.16,4.16-10.69,10.69.68,3.26,3.38,5.85,6.64,6.64,6.42,1.46,12.04-4.16,10.69-10.69-.79-3.26-3.38-5.97-6.64-6.64Z"/>
    <path class="st0" d="M336.41,288.91c-6.42-1.46-12.04,4.16-10.69,10.69.68,3.26,3.38,5.85,6.64,6.64,6.42,1.46,12.16-4.16,10.69-10.69-.79-3.26-3.49-5.85-6.64-6.64Z"/>
    <path class="st0" d="M336.42,320.77c-6.42-1.46-12.16,4.16-10.69,10.69.68,3.26,3.38,5.85,6.64,6.64,6.42,1.46,12.04-4.16,10.69-10.69-.79-3.26-3.38-5.97-6.64-6.64Z"/>
    <path class="st0" d="M368.16,288.91c-6.42-1.46-12.04,4.16-10.69,10.69.68,3.26,3.38,5.85,6.64,6.64,6.42,1.46,12.16-4.16,10.69-10.69-.79-3.26-3.38-5.85-6.64-6.64Z"/>
    <path class="st0" d="M400.01,288.91c-6.42-1.46-12.16,4.16-10.69,10.69.68,3.26,3.38,5.85,6.64,6.64,6.42,1.46,12.04-4.16,10.69-10.69-.79-3.26-3.38-5.85-6.64-6.64Z"/>
    <path class="st0" d="M431.76,350.94c-6.42-1.46-12.04,4.16-10.69,10.69.68,3.26,3.38,5.85,6.64,6.64,6.42,1.46,12.16-4.16,10.69-10.69-.68-3.26-3.38-5.85-6.64-6.64Z"/>
    <path class="st0" d="M431.76,227.01c-6.42-1.46-12.04,4.16-10.69,10.69.68,3.26,3.38,5.85,6.64,6.64,6.42,1.46,12.16-4.16,10.69-10.69-.68-3.38-3.38-5.97-6.64-6.64Z"/>
    <path class="st0" d="M431.75,257.17c-6.42-1.46-12.16,4.16-10.69,10.69.68,3.26,3.38,5.85,6.64,6.64,6.42,1.46,12.04-4.16,10.69-10.69-.68-3.26-3.38-5.97-6.64-6.64Z"/>
    <path class="st0" d="M431.76,288.91c-6.42-1.46-12.04,4.16-10.69,10.69.68,3.26,3.38,5.85,6.64,6.64,6.42,1.46,12.16-4.16,10.69-10.69-.68-3.26-3.38-5.85-6.64-6.64Z"/>
    <path class="st0" d="M431.75,320.77c-6.42-1.46-12.16,4.16-10.69,10.69.68,3.26,3.38,5.85,6.64,6.64,6.42,1.46,12.04-4.16,10.69-10.69-.68-3.26-3.38-5.97-6.64-6.64Z"/>
    <path class="st0" d="M262.69,350.94c-6.42-1.46-12.04,4.16-10.69,10.69.68,3.26,3.38,5.85,6.64,6.64,6.42,1.46,12.16-4.16,10.69-10.69-.79-3.26-3.49-5.85-6.64-6.64Z"/>
    <path class="st0" d="M262.69,227.01c-6.42-1.46-12.04,4.16-10.69,10.69.68,3.26,3.38,5.85,6.64,6.64,6.42,1.46,12.16-4.16,10.69-10.69-.79-3.38-3.49-5.97-6.64-6.64Z"/>
    <path class="st0" d="M262.69,257.17c-6.42-1.46-12.16,4.16-10.69,10.69.68,3.26,3.38,5.85,6.64,6.64,6.42,1.46,12.04-4.16,10.69-10.69-.79-3.26-3.49-5.97-6.64-6.64Z"/>
    <path class="st0" d="M262.69,288.91c-6.42-1.46-12.04,4.16-10.69,10.69.68,3.26,3.38,5.85,6.64,6.64,6.42,1.46,12.16-4.16,10.69-10.69-.79-3.26-3.49-5.85-6.64-6.64Z"/>
    <path class="st0" d="M262.69,320.77c-6.42-1.46-12.16,4.16-10.69,10.69.68,3.26,3.38,5.85,6.64,6.64,6.42,1.46,12.04-4.16,10.69-10.69-.79-3.26-3.49-5.97-6.64-6.64Z"/>
    <path class="st0" d="M311.32,298.03v-2.25h-5.97v2.14c0,3.94-.45,6.64-1.69,8.78l-8.55-9.68,3.38-2.03c2.7-1.58,4.05-3.83,4.05-6.87,0-4.28-3.38-7.43-7.99-7.43s-7.88,3.15-7.88,7.43c0,2.14.68,3.94,2.25,5.63l2.36,2.59-2.48,1.46c-2.93,1.69-4.5,4.5-4.5,7.77,0,5.4,4.16,9.34,9.79,9.34,3.83,0,7.32-1.58,9.91-4.5l3.38,3.83h3.26l-5.18-5.85c1.46-2.25,2.25-5.63,2.36-10.47h3.49v.11ZM292.97,298.14l9.34,10.47c-2.14,2.59-4.73,3.83-8.1,3.83-4.16,0-7.32-2.93-7.32-6.87,0-2.48,1.35-4.62,3.6-5.97l2.48-1.46ZM294.54,282.95c3.26,0,5.52,2.14,5.52,5.07,0,1.91-1.01,3.71-2.81,4.84l-3.71,2.25-2.36-2.7c-1.24-1.46-1.91-2.93-1.91-4.39,0-2.81,2.25-5.07,5.29-5.07Z"/>
  </g>
</svg>