<?xml version="1.0" encoding="UTF-8"?>
<svg id="Layer_1" xmlns="http://www.w3.org/2000/svg" version="1.1" viewBox="0 0 595.28 595.28">
  <!-- Generator: Adobe Illustrator 29.8.1, SVG Export Plug-In . SVG Version: 2.1.1 Build 2)  -->
  <defs>
    <style>
      .st0 {
        fill: #231f20;
      }
    </style>
  </defs>
  <g>
    <path id="path3041" class="st0" d="M217.1,315.96h0l-7.07,14.92-7.08-14.92h-4.25v19.97h3.54v-13.6l6.37,13.6h2.83l6.37-13.38v13.38h3.3v-19.97h-4.01Z"/>
    <path id="path3051" class="st0" d="M235.02,315.96h0l-8.96,19.97h4.01l6.84-15.58,2.83,6.58h-3.54l-1.18,3.07h6.13l2.6,5.92h4.25l-9.2-19.97h-3.77Z"/>
    <path id="path3061" class="st0" d="M254.83,330h0c0,1.97-.94,2.85-3.54,2.85h-.71v3.07h.71c6.13,0,7.55-3.29,7.55-5.92v-14.04h-4.01s0,14.04,0,14.04Z"/>
    <path id="path3071" class="st0" d="M266.39,335.93h3.77v-19.97h-3.77v19.97Z"/>
    <path id="path3081" class="st0" d="M285.72,315.96h-8.02v19.97h8.02c7.07,0,10.61-3.51,10.61-10.53,0-6.36-3.54-9.44-10.61-9.44ZM285.72,332.86h-4.25v-13.82h4.25c4.72,0,6.84,1.97,6.84,6.36,0,5.05-2.12,7.46-6.84,7.46Z"/>
    <path id="path3091" class="st0" d="M319.92,315.96h0l-9.2,19.97h4.01l6.84-15.58,3.07,6.58h-3.77l-1.18,3.07h6.13l2.83,5.92h4.01l-9.2-19.97h-3.54Z"/>
    <path id="path3101" class="st0" d="M337.6,315.96h0v19.97h14.38v-3.07h-10.61v-16.9h-3.77Z"/>
    <path id="path3111" class="st0" d="M368.02,315.96h0v19.97h3.77v-8.56h10.14v-3.07h-10.14v-5.27h10.61v-3.07h-14.38,0Z"/>
    <path id="path3121" class="st0" d="M401.99,328.03h0c0,3.29-1.67,5.05-5.2,5.05-3.77,0-5.42-1.76-5.42-5.05v-12.07h-3.77v12.07c0,5.27,3.07,8.12,9.2,8.12s8.97-2.85,8.97-8.12v-12.07h-3.77v12.07h0Z"/>
    <path id="path3131" class="st0" d="M410.94,315.96h0v3.07h6.6v16.9h3.77v-16.9h6.38v-3.07h-16.75,0Z"/>
    <path id="path3141" class="st0" d="M431.46,315.96h0v3.07h6.38v16.9h3.77v-16.9h6.35v-3.07h-16.5,0Z"/>
    <path id="path3151" class="st0" d="M458.33,315.96h0l-9.18,19.97h3.99l6.85-15.58,3.08,6.58h-3.8l-.94,3.07h6.16l2.58,5.92h4.02l-8.96-19.97h-3.8Z"/>
    <path id="path3161" class="st0" d="M476.49,335.93h3.77v-19.97h-3.77v19.97Z"/>
    <path id="path3171" class="st0" d="M505.96,315.96h0l-6.82,14.92-7.07-14.92h-4.24v19.97h3.52v-13.6l6.38,13.6h2.83l6.13-13.38v13.38h3.55v-19.97h-4.27,0Z"/>
    <path id="path3181" class="st0" d="M240.21,309.16h3.77v-3.95h-3.77v3.95Z"/>
    <path id="path3191" class="st0" d="M250.82,305.21h-4.01v3.95h4.01v-3.95Z"/>
    <path id="path3201" class="st0" d="M331.94,275.59h-3.77v4.17h3.77v-4.17Z"/>
    <path id="path3211" class="st0" d="M372.5,295.33h0v-16.9h-3.77v15.8c0,1.54,0,2.63-.47,3.07-.24.88-1.18,1.1-2.59,1.1h-29.24c-.94,0-1.65,0-2.36-.44,1.18-.66,2.12-1.54,3.07-2.85.94-1.32,1.41-2.85,1.41-4.61,0-1.97-.71-3.73-2.12-5.27-1.65-1.54-3.77-2.42-6.6-2.42-2.59,0-4.72.88-6.37,2.42-1.42,1.31-2.12,3.29-2.12,5.27,0,1.76.47,3.29,1.42,4.61.71,1.31,1.89,2.19,3.06,2.85-.71.44-1.65.44-2.36.44h-23.82v-1.1c0-8.12-3.3-12.07-9.67-12.07-4.25,0-8.73,2.85-11.56,7.46l.71-14.26h-4.01v19.97h-24.76c.24-.88.24-1.98.24-3.07v-10.09h-3.54v9c0,1.54-.24,2.63-.47,3.07-.47.88-1.41,1.1-2.83,1.1h-11.32c-3.53,0-5.89-1.98-6.13-5.05-.47-5.27-3.54-8.12-8.25-8.12h-10.85c-5.66,0-8.49,3.29-8.49,10.09v12.07h3.77v-12.07c0-4.39,1.89-7.02,4.72-7.02h4.01c-1.18,1.53-1.65,3.07-1.65,5.27,0,5.05,3.3,8.12,8.25,8.12,3.07,0,5.42-1.1,6.84-3.29,1.41,2.41,4.25,3.51,8.02,3.51h88.43c2.36,0,3.77,0,4.48-.22,1.41-.22,2.83-.66,4.48-1.53,1.41.88,2.83,1.31,4.25,1.53.71.22,2.12.22,4.25.22h28.06c2.59,0,5.89-1.1,5.89-6.58h0ZM329.82,286.12h0c1.41,0,2.6.44,3.54,1.1.71.88,1.18,1.76,1.18,3.07,0,1.1-.47,2.19-1.18,3.29-.94,1.1-1.89,1.97-3.3,2.41-1.65-.44-2.83-1.32-3.54-2.41-.71-1.1-1.18-2.2-1.18-3.29,0-2.63,1.89-4.17,4.48-4.17ZM295.63,296.87h0v1.54h-16.98c1.89-5.27,7.08-10.09,11.32-10.09,3.53,0,5.66,3.29,5.66,8.56ZM217.81,298.41h0c-2.36,0-4.01-1.76-4.01-4.83,0-3.29,1.65-5.05,4.25-5.05,2.36,0,3.77,1.76,3.77,4.83,0,4.61-2.12,5.05-4.01,5.05Z"/>
    <path id="path3221" class="st0" d="M382.64,278.44h-3.77v23.48h3.77v-23.48Z"/>
    <path id="path3231" class="st0" d="M448.9,297.97h0c0-7.46-4.93-12.29-12.73-12.29-4.24,0-7.54,1.32-9.68,3.73l-.22.44.22.44c1.19,1.1,1.89,1.76,2.36,1.97l.47.66.47-.66c1.19-2.19,3.3-3.29,6.38-3.29,5.44,0,8.48,3.07,8.48,8.78v.66h-34.44c-.69-8.78-4.93-13.17-12.96-13.17h-.47v3.29h1.42c3.06.22,4.94,1.31,6.36,3.29,1.19,1.54,1.67,3.95,1.89,6.58h-14.61v3.51h57.06v-3.95h0Z"/>
    <path id="path3241" class="st0" d="M438.78,304.99h-3.8v4.17h3.8v-4.17Z"/>
    <path id="path3251" class="st0" d="M458.58,301.92h36.79c1.41,1.97,3.77,3.07,6.6,3.07,2.58,0,4.71-.88,6.13-2.63,1.41-1.54,2.14-3.51,2.14-5.71,0-2.63-.72-4.61-2.14-5.92-1.41-1.76-3.55-2.41-6.13-2.41s-4.71.66-6.13,2.19c-1.41,1.76-2.36,3.73-2.36,6.14,0,.66.22,1.1.22,1.76h-34.66c-.72-.22-1.41-.44-1.67-.88-.47-.66-.69-1.54-.69-3.07v-16.02h-3.77v17.55c0,1.97.69,3.29,1.89,4.39.94,1.1,2.11,1.54,3.77,1.54h0ZM501.97,301.7h0c-1.41,0-2.36-.44-3.08-1.53-.69-.88-1.16-1.98-1.16-3.51s.47-2.63,1.16-3.73c.72-.88,1.67-1.54,3.3-1.54,1.41,0,2.36.44,3.08,1.54.47.88.69,1.97.69,3.29,0,3.73-1.16,5.48-3.99,5.48Z"/>
    <path class="st0" d="M129.85,260.66h0c-1.89.66-3.54,1.32-6.37,2.85-11.08,6.36-16.04,18.21-16.51,29.62v1.98h0v40.81h14.39v-40.37c0-2.63,1.18-4.83,3.3-6.36l5.66,6.36,5.66-6.36c1.89,1.54,3.06,3.73,3.06,6.36v40.37h14.39v-40.37c0-12.07-10.38-21.72-23.11-21.72-3.07,0-6.13.66-8.73,1.54h0c3.06-3.07,7.54-4.83,12.26-4.83h0c1.65,0,3.07,0,4.72.22,12.74,1.97,22.4,12.07,22.4,23.92.24.44.24.88.24,1.54v39.72h14.38v-40.15c0-17.33-11.32-31.38-30.42-35.33-.71-.22-1.89-.44-2.83-.44-1.41-.22-3.06-.44-4.48-.44-3.06,0-5.42.66-8.02,1.1Z"/>
    <path class="st0" d="M127.02,259.13h0c-24.76,0-41.98,15.36-41.98,35.99v40.81h14.39v-40.81c0-19.09,15.56-32.91,31.36-35.77.47,0,1.41-.22.47-.22h-4.25Z"/>
  </g>
</svg>