<svg preserveAspectRatio="xMidYMid meet" viewBox="0 0 132.617 33.4522" fill="none" xmlns="http://www.w3.org/2000/svg">
<g id="Group">
<path id="Vector" d="M5.47442 0.0130573C12.9467 -0.0108805 20.4211 0.0152335 27.8955 2.96479e-07C27.889 1.04456 27.8999 2.08912 27.8912 3.13586C20.4167 3.12933 12.9445 3.15109 5.47225 3.12497C5.48313 2.08694 5.48313 1.05109 5.47442 0.0130573Z" fill="var(--fill-0, black)"/>
<path id="Vector_2" d="M0.00653333 5.5028C1.03666 5.50933 2.06679 5.51368 3.0991 5.49627C3.12088 12.9888 3.11217 20.4806 3.10346 27.9732C2.06897 27.9623 1.03449 27.9601 0 27.9732C0.00653359 20.4828 -0.00653386 12.9932 0.00653333 5.5028Z" fill="var(--fill-0, black)"/>
<path id="Vector_3" d="M30.2643 5.55865C31.3053 5.54342 32.3442 5.48756 33.383 5.5028C33.4026 12.991 33.3961 20.4806 33.3874 27.9688C32.3442 27.9666 31.3032 27.9623 30.26 27.9645C30.2832 20.4959 30.2774 13.0273 30.2643 5.55865Z" fill="var(--fill-0, black)"/>
<path id="Vector_4" d="M124.622 8.88166C126.603 8.66622 128.739 8.79099 130.469 9.87907C131.392 10.4499 132.004 11.393 132.362 12.4012C131.457 12.7821 130.556 13.1789 129.666 13.5923C129.213 12.5521 128.331 11.62 127.159 11.4691C126.027 11.3378 124.779 11.2841 123.753 11.8521C122.73 12.3708 122.866 14.0878 123.902 14.5099C126.383 15.4791 129.469 15.0547 131.517 17.0234C132.866 18.3066 132.905 20.5183 132.01 22.067C131.217 23.4736 129.653 24.2425 128.118 24.537C126.911 24.722 125.678 24.7154 124.469 24.582C122.512 24.3404 120.63 23.3329 119.482 21.7138C120.238 21.0464 120.986 20.3675 121.687 19.6421C122.646 21.0588 124.265 21.9938 125.987 22.0257C127.047 22.054 128.376 22.0366 129.03 21.0457C129.541 20.3675 129.361 19.3548 128.723 18.8275C128.098 18.3813 127.324 18.2457 126.585 18.1144C124.861 17.8003 123.042 17.6059 121.518 16.6651C119.678 15.5886 119.385 12.9199 120.462 11.208C121.347 9.78622 123.021 9.08839 124.622 8.88166Z" fill="var(--fill-0, black)"/>
<path id="Vector_5" d="M7.52016 9.15078C8.55465 9.13554 9.58913 9.15295 10.6214 9.13772C10.6106 14.2009 10.6084 19.2634 10.6214 24.3266C9.58696 24.307 8.55247 24.3201 7.51799 24.3092C7.55428 19.2576 7.54775 14.2031 7.52016 9.15078Z" fill="var(--fill-0, black)"/>
<path id="Vector_6" d="M15.1362 9.1399C16.1837 9.15078 17.2291 9.14642 18.2766 9.1399C18.2636 14.1988 18.2592 19.2576 18.2788 24.3158C17.2313 24.3136 16.1837 24.3092 15.1362 24.3223C15.1449 19.262 15.1449 14.2009 15.1362 9.1399Z" fill="var(--fill-0, black)"/>
<path id="Vector_7" d="M22.7942 9.13772C23.8266 9.15078 24.8567 9.14642 25.889 9.1399C25.8868 14.2031 25.8846 19.2634 25.8912 24.3266C24.8545 24.3114 23.82 24.307 22.7855 24.3201C22.8073 19.2598 22.7899 14.1988 22.7942 9.13772Z" fill="var(--fill-0, black)"/>
<path id="Vector_8" d="M40.2622 9.1486C41.5123 9.13337 42.7624 9.17472 44.0124 9.13119C45.4586 12.9409 46.8959 16.7572 48.2324 20.6054C49.7518 16.8065 51.084 12.9322 52.599 9.13119C53.8186 9.16383 55.0433 9.15295 56.2651 9.14207C56.2542 14.2009 56.2455 19.262 56.2695 24.3223C55.2909 24.3114 54.3145 24.307 53.3381 24.3266C53.4375 20.8767 53.3642 17.4246 53.3874 13.9746C52.0553 17.4115 50.803 20.881 49.4949 24.3266C48.6651 24.3114 47.8375 24.307 47.0077 24.3223C45.7257 20.881 44.3399 17.4761 43.1674 13.9978C43.0644 17.4325 43.1413 20.8803 43.1333 24.3201C42.1722 24.307 41.2132 24.3158 40.2542 24.3092C40.2861 19.2576 40.2687 14.2031 40.2622 9.1486Z" fill="var(--fill-0, black)"/>
<path id="Vector_9" d="M59.2393 9.15295C62.9054 9.14425 66.5737 9.15731 70.2397 9.1486C70.2223 10.0532 70.2223 10.9599 70.2354 11.8666C67.6147 11.8753 64.994 11.8623 62.3733 11.8732C62.3798 12.967 62.3864 14.0631 62.3711 15.1592C64.8089 15.1788 67.2481 15.1701 69.6858 15.1613C69.7054 16.0703 69.6967 16.9813 69.6989 17.8917C67.2546 17.8852 64.811 17.8743 62.3689 17.8939C62.3907 19.1321 62.3776 20.3682 62.3711 21.6064C65.0368 21.6304 67.7054 21.6282 70.3733 21.6064C70.3624 22.511 70.3646 23.4177 70.3668 24.3245C66.6557 24.294 62.9439 24.331 59.2328 24.3049C59.2604 19.2554 59.2481 14.2031 59.2393 9.15295Z" fill="var(--fill-0, black)"/>
<g id="Group_2">
<path id="Vector_10" d="M73.2348 9.14209C75.3103 9.16603 77.3858 9.13556 79.4635 9.15732C80.9655 9.23712 82.5713 9.49753 83.7568 10.4993C85.1687 11.7034 85.3822 13.8114 84.8776 15.5023C84.5822 16.6158 83.6624 17.4209 82.6751 17.936C83.7677 20.0614 84.8537 22.1889 85.9317 24.3216C84.7724 24.3107 83.613 24.3085 82.4551 24.3237C81.4722 22.4261 80.6127 20.4603 79.5542 18.6062C78.4849 18.6534 77.4163 18.6236 76.347 18.628C76.3448 20.5234 76.3252 22.4182 76.36 24.3136C75.3146 24.3267 74.2693 24.3071 73.2261 24.3288C73.2457 19.2663 73.2304 14.2031 73.2348 9.14209ZM76.3491 11.7506C76.3295 13.1673 76.3535 14.5825 76.3339 15.9999C77.7669 15.9201 79.2522 16.1892 80.6511 15.7997C82.3346 15.3645 82.384 12.4898 80.7005 12.0248C79.2958 11.6128 77.7952 11.8043 76.3491 11.7506Z" fill="var(--fill-0, black)"/>
</g>
<g id="Group_3">
<path id="Vector_11" d="M87.0695 24.3121C89.1066 19.2641 91.0739 14.1864 93.1109 9.13845C94.1628 9.15803 95.2169 9.16021 96.2681 9.13627C98.2986 14.1908 100.259 19.2707 102.307 24.3187C101.171 24.3143 100.038 24.3165 98.9041 24.3099C98.4859 23.1559 98.0481 22.0054 97.6278 20.8513C95.6256 20.8469 93.6235 20.8535 91.6213 20.8469C91.1966 22.0054 90.7806 23.1682 90.3414 24.3208C89.251 24.3012 88.1585 24.3295 87.0695 24.3121ZM92.5614 18.258C93.9385 18.2152 95.3178 18.2152 96.695 18.2559C96.0271 16.3582 95.3222 14.4701 94.5788 12.5986C93.977 14.5114 93.1864 16.3546 92.5614 18.258Z" fill="var(--fill-0, black)"/>
</g>
<g id="Group_4">
<path id="Vector_12" d="M109.406 9.14643C110.469 9.1486 111.536 9.15295 112.601 9.14643C114.614 14.2031 116.594 19.2721 118.627 24.3223C117.493 24.3092 116.36 24.3114 115.228 24.3158C114.825 23.1551 114.368 22.0134 113.963 20.8527C111.958 20.844 109.954 20.8506 107.949 20.8549C107.497 22.0003 107.107 23.1696 106.663 24.3201C105.573 24.307 104.482 24.3092 103.391 24.3266C105.413 19.2729 107.409 14.2096 109.406 9.14643ZM108.866 18.2131C110.254 18.2689 111.644 18.1441 113.03 18.2624C112.353 16.3459 111.608 14.4526 110.911 12.5449C110.301 14.4592 109.564 16.3307 108.866 18.2131Z" fill="var(--fill-0, black)"/>
</g>
<path id="Vector_13" d="M5.47225 30.3546C12.9445 30.3285 20.4189 30.3524 27.8934 30.3416C27.9042 31.3796 27.8825 32.4154 27.8999 33.4513C20.4233 33.4448 12.9489 33.4622 5.47225 33.4426C5.48531 32.414 5.48313 31.3839 5.47225 30.3546Z" fill="var(--fill-0, black)"/>
</g>
</svg>
