<?xml version="1.0" encoding="UTF-8"?>
<svg id="Layer_1" xmlns="http://www.w3.org/2000/svg" version="1.1" viewBox="0 0 595.28 595.28">
  <!-- Generator: Adobe Illustrator 29.8.1, SVG Export Plug-In . SVG Version: 2.1.1 Build 2)  -->
  <defs>
    <style>
      .st0 {
        fill: #231f20;
      }
    </style>
  </defs>
  <g>
    <path class="st0" d="M102.59,244.01c23.96-.08,47.92,0,71.89-.04-.02,3.35.01,6.7-.01,10.06-23.96-.02-47.92.05-71.88-.03.03-3.33.03-6.65,0-9.99Z"/>
    <path class="st0" d="M85.06,261.63c3.3.02,6.61.03,9.92-.02.07,24.04.04,48.08.01,72.12-3.32-.03-6.63-.04-9.95,0,.02-24.03-.02-48.07.02-72.1Z"/>
    <path class="st0" d="M182.07,261.8c3.34-.05,6.67-.23,10-.18.06,24.03.04,48.06.01,72.09-3.34,0-6.68-.02-10.03-.01.07-23.96.06-47.93.01-71.89Z"/>
    <path class="st0" d="M484.6,272.47c6.35-.69,13.2-.29,18.75,3.2,2.96,1.83,4.92,4.86,6.07,8.09-2.9,1.22-5.79,2.5-8.64,3.82-1.45-3.34-4.28-6.33-8.04-6.81-3.63-.42-7.63-.59-10.92,1.23-3.28,1.66-2.85,7.17.48,8.53,7.95,3.11,17.85,1.75,24.41,8.06,4.32,4.12,4.45,11.21,1.58,16.18-2.54,4.51-7.56,6.98-12.48,7.93-3.87.59-7.82.57-11.7.14-6.28-.78-12.31-4.01-15.99-9.2,2.43-2.14,4.82-4.32,7.07-6.65,3.07,4.55,8.27,7.55,13.79,7.65,3.4.09,7.66.03,9.76-3.14,1.64-2.18,1.06-5.43-.98-7.12-2-1.43-4.49-1.87-6.85-2.29-5.53-1.01-11.36-1.63-16.25-4.65-5.9-3.45-6.84-12.02-3.39-17.51,2.84-4.56,8.2-6.8,13.34-7.46Z"/>
    <path class="st0" d="M109.15,273.33c3.32-.05,6.63,0,9.94-.04-.03,16.25-.04,32.49,0,48.74-3.32-.06-6.63-.02-9.95-.06.12-16.21.1-32.43,0-48.64Z"/>
    <path class="st0" d="M133.57,273.3c3.36.03,6.71.02,10.07,0-.04,16.23-.06,32.46,0,48.69-3.36,0-6.72-.02-10.08.02.03-16.24.03-32.48,0-48.72Z"/>
    <path class="st0" d="M158.12,273.29c3.31.04,6.61.03,9.92,0,0,16.25-.01,32.48,0,48.73-3.32-.05-6.64-.06-9.96-.02.07-16.24.01-32.48.03-48.72Z"/>
    <path class="st0" d="M214.13,273.32c4.01-.05,8.02.08,12.02-.06,4.64,12.22,9.25,24.47,13.53,36.82,4.87-12.19,9.14-24.62,14-36.82,3.91.1,7.84.07,11.75.03-.03,16.23-.06,32.47.01,48.71-3.14-.03-6.27-.05-9.4.01.32-11.07.08-22.15.16-33.22-4.27,11.03-8.29,22.16-12.48,33.22-2.66-.05-5.31-.06-7.97-.01-4.11-11.04-8.55-21.97-12.31-33.13-.33,11.02-.08,22.08-.11,33.12-3.08-.04-6.16-.01-9.23-.03.1-16.21.05-32.43.03-48.65Z"/>
    <path class="st0" d="M274.97,273.34c11.75-.03,23.52.01,35.27-.01-.06,2.9-.06,5.81-.01,8.72-8.4.03-16.8-.01-25.21.02.02,3.51.04,7.03,0,10.54,7.82.06,15.64.03,23.45,0,.06,2.92.03,5.84.04,8.76-7.84-.02-15.67-.06-23.5,0,.07,3.97.03,7.94,0,11.91,8.55.08,17.1.07,25.66,0-.03,2.9-.03,5.81-.02,8.72-11.9-.1-23.8.02-35.7-.06.09-16.2.05-32.41.02-48.62Z"/>
    <path class="st0" d="M319.85,273.3c6.65.08,13.31-.02,19.97.05,4.82.26,9.96,1.09,13.77,4.31,4.53,3.86,5.21,10.63,3.59,16.05-.95,3.57-3.9,6.16-7.06,7.81,3.5,6.82,6.99,13.65,10.44,20.49-3.72-.03-7.43-.04-11.15,0-3.15-6.09-5.91-12.4-9.3-18.35-3.43.15-6.85.06-10.28.07,0,6.08-.07,12.16.04,18.24-3.35.04-6.7-.02-10.05.05.06-16.24.01-32.49.03-48.73ZM329.83,281.67c-.06,4.55.01,9.09-.05,13.63,4.59-.26,9.36.61,13.84-.64,5.4-1.4,5.56-10.62.16-12.11-4.5-1.32-9.31-.71-13.95-.88Z"/>
    <path class="st0" d="M364.2,321.98c6.53-16.2,12.84-32.49,19.37-48.69,3.37.06,6.75.07,10.12,0,6.51,16.22,12.8,32.52,19.36,48.72-3.64-.01-7.28,0-10.91-.03-1.34-3.7-2.74-7.39-4.09-11.1-6.42-.01-12.84,0-19.26-.01-1.36,3.72-2.7,7.45-4.1,11.15-3.5-.06-7,.03-10.49-.03ZM381.81,302.55c4.42-.14,8.84-.14,13.25,0-2.14-6.09-4.4-12.15-6.78-18.15-1.93,6.14-4.46,12.05-6.47,18.16Z"/>
    <path class="st0" d="M435.82,273.32c3.41,0,6.83.02,10.24,0,6.45,16.23,12.8,32.49,19.32,48.69-3.64-.04-7.27-.03-10.9-.02-1.29-3.72-2.76-7.39-4.06-11.11-6.43-.03-12.85,0-19.28,0-1.45,3.68-2.7,7.43-4.12,11.12-3.5-.04-6.99-.03-10.49.02,6.48-16.22,12.88-32.46,19.29-48.71ZM434.08,302.41c4.45.18,8.91-.22,13.35.16-2.17-6.15-4.56-12.22-6.79-18.35-1.96,6.14-4.32,12.15-6.56,18.19Z"/>
    <path class="st0" d="M102.58,341.37c23.96-.08,47.92,0,71.89-.04.03,3.33-.03,6.65.02,9.98-23.97-.02-47.94.03-71.91-.03.04-3.3.03-6.61,0-9.91Z"/>
  </g>
</svg>