<?xml version="1.0" encoding="UTF-8"?>
<svg id="Layer_1" xmlns="http://www.w3.org/2000/svg" version="1.1" viewBox="0 0 595.28 595.28">
  <!-- Generator: Adobe Illustrator 29.8.1, SVG Export Plug-In . SVG Version: 2.1.1 Build 2)  -->
  <defs>
    <style>
      .st0 {
        fill: #231f20;
      }
    </style>
  </defs>
  <g>
    <path class="st0" d="M509.1,258.2h-16.65c-.63,0-1.14.52-1.14,1.15v16.89c0,14.3.22,28.27.11,28.27h-.11c-.11,0-12.17-17-17.24-23.77l-16.39-22.01s-.03-.03-.03-.04c-.21-.29-.55-.48-.93-.48h-16.1c-.63,0-1.14.52-1.14,1.15v76.58c0,.62.51,1.14,1.14,1.14h16.65c.63,0,1.14-.51,1.14-1.14v-16.32c0-17.24-.23-29.41-.11-29.41h.11c.11,0,10.7,15,17.92,24.9l15.74,21.46c.21.31.55.5.94.5h16.09c.63,0,1.14-.51,1.14-1.14v-76.58c0-.63-.51-1.15-1.14-1.15"/>
    <path class="st0" d="M386.77,319.13c-4.19,0-7.89-1.02-10.96-2.88-5.92-3.58-9.45-10.24-9.45-18.61s3.52-15.06,9.42-18.62c3.07-1.86,6.79-2.88,10.99-2.88,12.37,0,20.51,8.69,20.51,21.5s-8.14,21.49-20.51,21.49M386.77,258.13c-21.82,0-39.4,16.61-39.4,39.51s17.58,39.51,39.4,39.51,39.51-16.61,39.51-39.51-17.69-39.51-39.51-39.51"/>
    <path class="st0" d="M293.14,258.2h-23c-.63,0-1.14.52-1.14,1.15v15.4c0,.62.51,1.14,1.14,1.14h23c11.27,0,21.08,8.56,21.08,22.09s-9.81,21.4-21.08,21.4h-23c-.63,0-1.14.52-1.14,1.15v15.4c0,.62.51,1.14,1.14,1.14h23c22.54,0,40.78-15.44,40.78-39.09s-18.25-39.77-40.78-39.77"/>
    <path class="st0" d="M240.04,265.36s-.08-.06-.11-.09c-.43-.26-.99-.21-1.37.16-.05.05-.1.1-.12.16-.06.07-.1.15-.13.23l-7.66,14.09c-.05.06-.08.12-.11.2-.16.39-.09.87.24,1.19,4,3.8,6.29,9.44,6.29,16.24,0,12.74-8.16,21.55-20.56,21.55s-20.47-8.82-20.47-21.55c0-6.58,2.15-12.06,5.89-15.84.32-.33.4-.8.24-1.2-.03-.07-.07-.14-.11-.21l-7.73-14.19c-.02-.07-.07-.14-.11-.21-.04-.06-.09-.11-.13-.15-.36-.36-.92-.42-1.34-.18-.08.06-.15.11-.22.17-9.45,7.03-15.53,18.32-15.53,31.81,0,22.97,17.64,39.62,39.52,39.62s39.61-16.65,39.61-39.62c0-13.71-6.32-25.16-16.08-32.17"/>
    <path class="st0" d="M216.36,276.54s.09,0,.14,0c.07,0,.13,0,.2,0,5.01-.08,9.05-4.15,9.05-9.18s-4.11-9.19-9.19-9.19-9.19,4.11-9.19,9.19,4.01,9.07,8.99,9.18"/>
    <path class="st0" d="M162.65,258.18h-16.03c-.38,0-.71.18-.92.47l-.08.14-14.39,23.29c-5.74,9.35-6.64,11.37-6.76,11.37h-.11c-.11,0-1.01-2.03-6.76-11.37l-14.39-23.29-.08-.14c-.21-.28-.54-.47-.92-.47h-16.03c-.63,0-1.14.52-1.14,1.15v76.58c0,.63.51,1.14,1.14,1.14h16.31c.63,0,1.14-.51,1.14-1.14v-18.12c0-18.7-.67-27.95-.56-27.95h.11l21.05,34.92s0,.01,0,.02c0,.01.02.02.02.03.09.09.24.09.32,0,.01,0,.02-.02.03-.03l21.05-34.93h.11c.12,0-.56,9.25-.56,27.95v18.12c0,.63.51,1.14,1.14,1.14h16.32c.63,0,1.14-.51,1.14-1.14v-76.58c0-.63-.51-1.15-1.14-1.15"/>
  </g>
</svg>