<?xml version="1.0" encoding="UTF-8"?>
<svg id="Layer_1" xmlns="http://www.w3.org/2000/svg" version="1.1" viewBox="0 0 595.28 595.28">
  <!-- Generator: Adobe Illustrator 29.8.1, SVG Export Plug-In . SVG Version: 2.1.1 Build 2)  -->
  <defs>
    <style>
      .st0 {
        fill: #231f20;
      }
    </style>
  </defs>
  <g id="layer1">
    <path id="path9636" class="st0" d="M133.84,260.75h16.97v73.78h-32.99l-15.81-73.15v73.15h-16.97v-73.78h33.1l15.7,73.15v-73.15ZM205.1,260.75h-33.31l-15.49,73.78h16.76l3.06-14.65h24.67l3.06,14.65h16.76l-15.49-73.78ZM178.95,306.7l9.49-45.32,9.49,45.32h-18.97ZM259.69,304.91l25.4-44.17h-18.87l-21.4,37.31v-37.31h-18.76v73.78h18.76v-28.35h11.59l9.8,28.35h18.97l-10.22-29.62h-15.28ZM331.05,289.52h-12.86l-8.43,13.6v-42.37h-18.76v73.78h18.76v-30.57h21.29v30.57h18.76v-73.78h-18.76v28.78ZM358.88,334.53h46.69v-13.7h-27.93v-17.18h22.35v-13.7h-14.44l-7.9,12.65v-28.14h27.93v-13.7h-46.69v73.78ZM412.95,334.53h46.69v-13.7h-27.93v-17.18h22.35v-13.7h-14.44l-7.9,12.65v-28.14h27.93v-13.7h-46.69v73.78ZM485.78,320.83v-60.08h-18.76v73.78h43.22v-13.7h-24.45Z"/>
  </g>
</svg>