<?xml version="1.0" encoding="UTF-8"?>
<svg id="Layer_1" xmlns="http://www.w3.org/2000/svg" version="1.1" viewBox="0 0 595.28 595.28">
  <!-- Generator: Adobe Illustrator 29.8.1, SVG Export Plug-In . SVG Version: 2.1.1 Build 2)  -->
  <defs>
    <style>
      .st0 {
        fill: #231f20;
      }
    </style>
  </defs>
  <path class="st0" d="M184.06,330.25h3.76c2.74.24,4.61,2.11,5.55,5.59.27,1.16.41,2.11.41,2.86,0,4.71-4.08,5.61-4.12,5.61l-.18.04-.02.02c-.2.04-.69.14-1.32.14-.16-.02-.22-.04-.31-.04h-3.76v-14.22ZM180.22,327.49v19.76h7.6c5.49-.08,9.77-4.43,9.77-9.87s-4.37-9.83-9.73-9.89h-7.64ZM212.52,327.49v19.76h14.99v-2.78h-11.17v-5.71h7.64v-2.74h-7.64v-5.77h10.38v-2.76h-14.2ZM257.24,327.49l-.18.32-.16.32-6.72,13.75-6.72-13.73-.14-.31-.16-.37h-4.1l.43.87.41.83,8.51,17.39.18.34.16.33h1.89l.16-.37.15-.32.53-1.06,7.94-16.31.43-.81.47-.89h-3.05ZM273.31,327.49v19.76h14.97v-2.78h-11.17v-5.71h7.64v-2.74h-7.64v-5.77h10.38v-2.76h-14.18ZM301.75,327.49v19.76h14.2v-2.78h-10.38v-16.98h-3.82ZM330.31,338.88c-.31-1.24-.45-2.11-.45-2.82,0-4.55,3.78-5.63,4.21-5.75l.18-.04v-.02c.41-.08.81-.12,1.26-.12,3.02,0,5.14,1.97,6.13,5.71.29,1.1.41,2.01.41,2.84,0,4.39-3.49,5.57-4.14,5.75h-.02l-.14.02s-.55.18-1.34.18c-3.03,0-5.08-1.95-6.09-5.74M326.08,337.38c0,5.44,4.45,9.87,9.89,9.87s9.87-4.43,9.87-9.87-4.43-9.89-9.87-9.89-9.89,4.45-9.89,9.89M364.63,330.25h4.15c.93,0,2.28.35,3.17,3.21.2.77.29,1.34.29,1.83,0,2.4-2.42,2.66-3.46,2.66h-4.15v-7.7ZM360.84,327.49v19.76h3.8v-6.52h4.15c4.3,0,7.31-2.68,7.31-6.52s-3.1-6.72-7.31-6.72h-7.95ZM410.44,327.49l-.16.34-.18.28-7.2,13.95-7.2-13.95-.2-.32-.18-.3h-3.24l-.02.59-.05.55-.93,17.34-.04.63-.02.65h2.72l.04-.57.07-.55.65-12.37,6.67,12.82.16.34.18.33h1.76l.2-.33.18-.32,6.61-12.82.68,12.33.04.55.02.59h3.87l-.05-.67-.05-.63-.91-17.33-.07-.59-.04-.55h-3.28ZM429.71,327.49v19.76h14.98v-2.78h-11.18v-5.71h7.67v-2.74h-7.67v-5.77h10.41v-2.76h-14.21ZM472.37,327.49v13.37l-10.59-12.94-.18-.22-.18-.2h-3.28v19.76h2.8v-14.75l11.68,14.3.18.2.18.25h2.17v-19.76h-2.78ZM488.89,327.49v2.76h7.99v17h3.82v-17h7.94v-2.76h-19.75ZM223.69,263.14c1.16,2.15,1.97,4.35,2.58,6.29-.61-1.95-1.44-4.14-2.58-6.29M219.91,257.69c1.54,1.66,2.78,3.54,3.78,5.44-1-1.91-2.26-3.78-3.78-5.44M187.33,281.4c-.99-4.04-1.42-6.78-1.42-9.18,0-6.68,2.42-12,7.21-15.8,3.33-2.64,6.72-3.6,7.19-3.71h.16l.08-.08c.69-.19,2.4-.57,4.73-.57h.16c13.51,0,18.73,11.88,20.64,18.95.89,3.64,1.32,6.54,1.32,9.14,0,6.72-2.44,12.09-7.25,15.88-3.35,2.66-6.77,3.64-7.21,3.76h-.04l-.08.02s-2.01.63-4.87.63c-13.55,0-18.73-11.92-20.62-19.03M179.31,276.28c0,15.03,12.31,27.26,27.42,27.26s27.28-12.23,27.28-27.26-12.25-27.44-27.28-27.44-27.42,12.31-27.42,27.44M294.41,248.84v24.48h-32.9v-24.48h-6.68v54.7h6.68v-26.63h32.9v26.63h6.74v-54.7h-6.74ZM345.13,254.22l12.88,28.22h-25.78l12.9-28.22ZM343.83,248.84l-.18.35-.16.34-23.89,52.33-.37.83-.39.85h3.74l.16-.37.16-.34,7.78-16.86h28.98l7.76,16.88.18.37.16.32h6.86l-.36-.85-.39-.85-23.96-52.28-.14-.33-.14-.39h-5.81ZM433.15,248.84v44.59l-36.09-44.12-.16-.22-.2-.25h-6.31v54.7h3.53v-48.71l39.49,48.26.16.22.18.22h2.99v-54.7h-3.6ZM480.71,254.22l12.85,28.22h-25.73l12.88-28.22ZM479.36,248.84l-.16.39-.14.35-23.89,52.28-.39.83-.38.85h3.76l.16-.37.14-.34,7.76-16.86h28.99l7.8,16.88.14.32.16.37h6.92s-.39-.85-.39-.85l-.36-.85-23.98-52.28-.14-.33-.16-.39h-5.84ZM88.41,313.86l10.66-9.57v33.94l-10.66,9.57v-33.94ZM143.54,295.98l10.02,8.97-.04,24.62-9.97,8.96v-42.55ZM116.1,256.58l10.22-9.14v55.49l-10.22,9.14v-55.49ZM128.69,240.75l-.97.85-14.44,12.94-.2.2-.14.12-.2.18v17.49l-10.26,9.18v-17.14h-3.39v35.2l-13.49,12.06-.24.24-.06.02-.24.18v43.1l1.01-.93.96-.88,12.07-10.83v12.01h3.39v-68.49l10.26-9.2v77.69h3.37v-38.13l10.22-9.2v47.33h3.39v-93.6l10.46,9.36v84.24h3.37v-11.66l9.97-8.96-.02,19.44v1.18h3.4v-1.18l.04-22.75v-.2l.02-26.65v-.53l-.2-.18-.2-.18-13-11.64v-22.43l-.18-.18-.18-.16-13.47-12.08v-16.72l-1.02.87Z"/>
</svg>