<svg preserveAspectRatio="xMidYMid meet" viewBox="0 0 135 18" fill="none" xmlns="http://www.w3.org/2000/svg">
<g id="OMNIYAT_id3ynQ1ti7_1 1" clip-path="url(#clip0_0_279)">
<path id="Vector" d="M43.3197 0.29983H39.8516C39.3274 1.91078 36.4066 6.89356 34.2608 10.3416C32.0409 6.89611 29.0461 1.91333 28.4962 0.29983H25.0281C25.4015 2.03529 25.4271 6.10078 25.4271 9.00252C25.4271 11.9043 25.4015 15.9698 25.0281 17.7053H28.3964C28.0461 16.0435 27.9975 8.68238 27.9975 4.91163C30.1688 8.20976 32.266 11.6806 33.711 14.2572H34.6342C36.0307 11.6527 38.1765 8.18182 40.3478 4.86081C40.3478 8.60361 40.2992 16.0181 39.9488 17.7027H43.3171C42.9438 15.9673 42.9181 11.9018 42.9181 9C42.9181 6.09825 42.9438 2.03275 43.3171 0.29729M0 9.07623C0 14.2089 3.84143 18 9.00765 18C14.1739 18 18.1662 14.1073 18.1662 8.92631C18.1662 3.74534 14.3248 0.00254093 9.15858 0.00254093C3.99233 0.00254093 0 3.89525 0 9.07623ZM2.89514 8.70525C2.89514 4.81253 5.26598 2.23349 8.83376 2.23349C12.8516 2.23349 15.2711 5.45539 15.2711 9.29979C15.2711 13.1442 12.9002 15.7716 9.33246 15.7716C5.31458 15.7716 2.89514 12.5497 2.89514 8.70525ZM51.0563 17.7053H54.4245C54.0742 16.0689 54.0256 9.42435 54.0256 4.83794C57.6931 9.15246 61.2865 13.317 64.0076 17.7053H66.977C66.6036 15.797 66.5524 11.9297 66.5524 9.00252C66.5524 6.07538 66.6036 2.03529 66.977 0.29983H63.6087C63.959 1.9362 64.0076 8.58074 64.0076 13.1672C60.3401 8.82976 56.7468 4.58893 54.0256 0.29983H51.0563C51.4297 2.03529 51.4552 6.10078 51.4552 9.00252C51.4552 11.9043 51.4297 15.9698 51.0563 17.7053ZM74.7136 17.7053H78.0818C77.7084 15.9698 77.6829 11.9297 77.6829 9.02799C77.6829 6.1262 77.7084 2.03783 78.0818 0.29983H74.7136C75.087 2.03529 75.1126 6.1262 75.1126 9.02799C75.1126 11.9297 75.087 15.9698 74.7136 17.7053ZM83.7212 0.29983C85.1688 2.03529 87.9642 6.42349 90.7596 11.2589V13.6143C90.7596 15.1008 90.7344 16.5644 90.486 17.7053H93.8286C93.5784 16.5644 93.555 15.1033 93.555 13.6143V11.2589C96.3504 6.42349 99.1206 2.03529 100.593 0.29983H96.9741C96.5754 2.0607 93.9798 6.25071 92.358 8.80435C90.6858 6.25071 88.0153 2.0607 87.5908 0.29983H83.7238H83.7212ZM101.238 17.7027H104.857C105.107 15.9419 108.276 9.39636 110.097 5.67899C111.944 9.39897 115.189 15.9419 115.438 17.7027H119.304C118.107 15.9673 113.864 7.56183 110.271 0C106.678 7.56183 102.634 15.9673 101.238 17.7027ZM120.327 3.17363C122.074 2.80265 124.12 2.77725 126.365 2.77725C126.365 7.73461 126.34 15.9673 125.967 17.7027H129.361C128.987 15.9673 128.962 7.73716 128.962 2.77725C131.207 2.77725 133.253 2.80265 135 3.17363V0.29983H120.327V3.17617V3.17363Z" fill="var(--fill-0, black)"/>
</g>
<defs>
<clipPath id="clip0_0_279">
<rect width="135" height="18" fill="white"/>
</clipPath>
</defs>
</svg>
