<?xml version="1.0" encoding="UTF-8"?>
<svg id="Layer_1" xmlns="http://www.w3.org/2000/svg" version="1.1" viewBox="0 0 595.28 595.28">
  <!-- Generator: Adobe Illustrator 29.8.1, SVG Export Plug-In . SVG Version: 2.1.1 Build 2)  -->
  <defs>
    <style>
      .st0 {
        fill: #231f20;
      }
    </style>
  </defs>
  <path class="st0" d="M221.48,270.24h-10.92c-1.65,5.07-10.85,20.77-17.61,31.63-6.99-10.85-16.42-26.55-18.16-31.63h-10.92c1.18,5.47,1.26,18.27,1.26,27.41s-.08,21.94-1.26,27.41h10.61c-1.1-5.23-1.26-28.42-1.26-40.29,6.84,10.39,13.44,21.32,18,29.43h2.91c4.4-8.2,11.16-19.13,18-29.59,0,11.79-.15,35.14-1.26,40.45h10.61c-1.18-5.47-1.26-18.27-1.26-27.41s.08-21.94,1.26-27.41M85.04,297.88c0,16.17,12.1,28.11,28.37,28.11s28.85-12.26,28.85-28.58-12.1-28.11-28.37-28.11-28.85,12.26-28.85,28.58ZM94.16,296.71c0-12.26,7.47-20.38,18.7-20.38,12.65,0,20.28,10.15,20.28,22.26s-7.47,20.38-18.7,20.38c-12.65,0-20.28-10.15-20.28-22.26ZM245.85,325.06h10.61c-1.1-5.15-1.26-26.08-1.26-40.53,11.55,13.59,22.87,26.71,31.44,40.53h9.35c-1.18-6.01-1.34-18.19-1.34-27.41s.16-21.94,1.34-27.41h-10.61c1.1,5.15,1.26,26.08,1.26,40.53-11.55-13.66-22.87-27.02-31.44-40.53h-9.35c1.18,5.47,1.26,18.27,1.26,27.41s-.08,21.94-1.26,27.41ZM320.36,325.06h10.61c-1.18-5.47-1.26-18.19-1.26-27.33s.08-22.02,1.26-27.49h-10.61c1.18,5.47,1.26,18.35,1.26,27.49s-.08,21.86-1.26,27.33ZM348.73,270.24c4.56,5.47,13.36,19.29,22.17,34.52v7.42c0,4.68-.08,9.29-.86,12.88h10.53c-.79-3.59-.86-8.19-.86-12.88v-7.42c8.8-15.23,17.53-29.05,22.17-34.52h-11.4c-1.26,5.55-9.43,18.74-14.54,26.79-5.27-8.04-13.68-21.24-15.01-26.79h-12.19ZM403.9,325.05h11.4c.79-5.55,10.77-26.16,16.5-37.87,5.82,11.72,16.04,32.32,16.82,37.87h12.18c-3.77-5.47-17.13-31.94-28.45-55.76-11.32,23.82-24.05,50.29-28.45,55.76ZM464.02,279.29c5.5-1.17,11.95-1.25,19.02-1.25,0,15.61-.08,41.54-1.26,47.01h10.69c-1.18-5.47-1.26-31.39-1.26-47.01,7.07,0,13.52.08,19.02,1.25v-9.05h-46.21v9.06h0Z"/>
</svg>