<?xml version="1.0" encoding="utf-8"?>
<!-- Generator: Adobe Illustrator 27.4.0, SVG Export Plug-In . SVG Version: 6.00 Build 0)  -->
<svg version="1.1" id="Livello_1" xmlns="http://www.w3.org/2000/svg" xmlns:xlink="http://www.w3.org/1999/xlink" x="0px" y="0px"
	 viewBox="0 0 1010.8 267.1" style="enable-background:new 0 0 1010.8 267.1;" xml:space="preserve">
<style type="text/css">
	.st0{fill:#4A4240;}
</style>
<g>
	<path class="st0" d="M354.8,249.7c-0.6-1.5-1.5-2.8-2.7-3.9c-1.2-1.1-2.5-1.9-4.1-2.6c-1.5-0.6-3.3-0.9-5.2-0.9H334v24.4h8.8
		c1.8,0,3.5-0.3,5.2-1c1.5-0.6,2.9-1.5,4.1-2.6c1.2-1.1,2.1-2.4,2.7-3.9c0.6-1.5,0.9-3.1,0.9-4.9
		C355.7,252.8,355.4,251.2,354.8,249.7 M350.9,257.9c-0.4,1-1,1.9-1.8,2.6c-0.7,0.7-1.6,1.3-2.7,1.7c-1.1,0.4-2.3,0.6-3.6,0.6h-4.6
		v-16.6h4.6c1.3,0,2.5,0.2,3.6,0.6c1.1,0.4,1.9,1,2.7,1.8c0.8,0.8,1.4,1.6,1.8,2.7c0.4,1,0.6,2.1,0.6,3.3
		C351.5,255.8,351.3,256.8,350.9,257.9"/>
	<path class="st0" d="M386.4,242.4v13.9c0,1.7-0.3,3.3-0.7,4.6c-0.5,1.3-1.2,2.5-2.2,3.4c-0.8,0.9-1.9,1.6-3.3,2.1
		c-1.2,0.4-2.7,0.7-4.2,0.7c-1.5,0-2.9-0.2-4.1-0.7c-1.3-0.5-2.4-1.2-3.3-2.1c-0.9-0.9-1.6-2-2.1-3.4c-0.5-1.3-0.8-2.9-0.8-4.6
		v-14.1h4.1v13.9c0,2.3,0.6,4.1,1.6,5.2c1.1,1.2,2.6,1.8,4.6,1.8c1.9,0,3.4-0.6,4.5-1.7c1.1-1.1,1.6-2.9,1.6-5.1v-14.1H386.4z"/>
	<path class="st0" d="M417.1,257.3c-0.3-0.7-0.7-1.3-1.2-1.8c-0.4-0.5-1-0.9-1.7-1.3l-0.2-0.1c-0.1,0-0.1-0.1-0.2-0.1
		c0.5-0.4,0.9-0.8,1.2-1.2c0.4-0.4,0.7-1,1-1.7c0.3-0.7,0.4-1.4,0.4-2.2c0-1-0.2-1.9-0.6-2.7c-0.4-0.8-0.9-1.5-1.7-2
		c-0.8-0.6-1.6-1-2.6-1.3c-1-0.3-2.1-0.4-3.3-0.4h-10.5v24.4h11c1.2,0,2.5-0.2,3.6-0.4c1.1-0.3,2-0.8,2.9-1.4
		c0.8-0.6,1.4-1.4,1.9-2.3c0.4-0.9,0.7-1.9,0.7-3C417.5,258.8,417.4,258,417.1,257.3 M408.6,263h-6.9v-6.6h6.5
		c1.8,0,3.2,0.3,4.1,0.9c0.8,0.6,1.2,1.3,1.2,2.3c0,1.1-0.4,1.8-1.2,2.5C411.4,262.6,410.1,263,408.6,263 M401.7,246.2h6.2
		c1.4,0,2.6,0.3,3.3,0.8c0.7,0.5,1,1.2,1,2.1c0,1.2-0.4,1.9-1.1,2.5c-0.8,0.6-1.9,0.9-3.3,0.9h-6V246.2z"/>
	<path class="st0" d="M440.1,242.7l-0.1-0.5h-3.4l-10.8,23.9l-0.3,0.7h4.3l2.7-6.1h11.5l2.5,5.6l0.2,0.4h4.4L440.1,242.7z
		 M442.2,256.9h-8.1l4.1-9.1L442.2,256.9z"/>
	<rect x="460.4" y="242.4" class="st0" width="4.1" height="24.4"/>
	<rect x="492.8" y="242.4" class="st0" width="4.1" height="24.4"/>
	<path class="st0" d="M525.8,259.8c0,1-0.2,2-0.7,3c-0.4,0.9-1.1,1.7-1.8,2.4c-0.8,0.6-1.7,1.1-2.7,1.4c-1,0.3-2.1,0.5-3.4,0.5
		c-1.8,0-3.6-0.3-5.3-1c-1.7-0.7-3.3-1.7-4.6-2.9l-0.5-0.5l2.6-3.1l0.6,0.5c1.1,1,2.2,1.8,3.4,2.3c1.1,0.5,2.5,0.8,3.9,0.8
		c1.3,0,2.4-0.3,3.2-0.9c0.8-0.6,1.1-1.3,1.1-2.3c0-0.4-0.1-0.8-0.2-1.1c-0.1-0.3-0.4-0.6-0.7-0.9c-0.4-0.3-0.9-0.6-1.6-0.8
		c-0.7-0.3-1.6-0.5-2.8-0.8c-1.2-0.2-2.4-0.6-3.5-1c-1-0.4-1.9-0.9-2.6-1.5c-0.7-0.6-1.2-1.3-1.6-2.1c-0.4-0.9-0.6-1.8-0.6-2.8
		c0-0.9,0.2-1.9,0.7-2.8c0.4-0.9,1-1.6,1.8-2.2c0.7-0.6,1.5-1.1,2.7-1.4c0.9-0.4,2-0.5,3.2-0.5c1.9,0,3.4,0.2,4.7,0.7
		c1.3,0.5,2.6,1.2,3.9,2.2l0.6,0.4l-2.4,3.2l-0.6-0.4c-1-0.8-2-1.4-3-1.8c-1-0.4-2-0.5-3.1-0.5c-0.7,0-1.3,0.1-1.8,0.3
		c-0.5,0.1-0.9,0.4-1.3,0.7c-0.3,0.3-0.6,0.6-0.8,0.9c-0.2,0.4-0.3,0.7-0.3,1.1s0.1,0.8,0.2,1.2c0.1,0.3,0.4,0.6,0.7,0.9
		c0.4,0.3,1,0.6,1.7,0.8c0.8,0.3,1.7,0.5,3,0.8c2.7,0.6,4.7,1.4,6,2.5C525.1,256.2,525.8,257.8,525.8,259.8"/>
	<polygon class="st0" points="553.1,262.9 553.1,266.8 536.1,266.8 536.1,242.4 540.2,242.4 540.2,262.9 	"/>
	<path class="st0" d="M575.3,242.6l-0.2-0.4h-3.4l-10.8,23.9l-0.3,0.7h4.3l2.7-6.1H579l2.5,5.6l0.2,0.4h4.4L575.3,242.6z
		 M569.3,256.9l4.1-9.1l4.1,9.1H569.3z"/>
	<polygon class="st0" points="616.2,242.4 616.2,266.8 613,266.8 612.8,266.4 599.3,249.4 599.3,266.8 595.3,266.8 595.3,242.4 
		598.9,242.4 599.1,242.7 612.2,259.3 612.2,242.4 	"/>
	<path class="st0" d="M648.4,249.7c-0.6-1.5-1.5-2.8-2.7-3.9c-1.1-1-2.5-1.9-4.1-2.6c-1.5-0.6-3.3-0.9-5.2-0.9h-8.7v24.4h8.7
		c1.8,0,3.5-0.3,5.2-1c1.6-0.6,2.9-1.5,4.1-2.6c1.1-1.1,2-2.4,2.7-3.9c0.6-1.5,0.9-3.1,0.9-4.9C649.4,252.7,649,251.2,648.4,249.7
		 M636.4,262.9h-4.6v-16.6h4.6c1.3,0,2.6,0.2,3.7,0.6c1.1,0.5,2,1.1,2.7,1.8c0.8,0.8,1.4,1.6,1.7,2.6c0.4,1.1,0.6,2.2,0.6,3.3
		c0,1.1-0.2,2.2-0.6,3.3c-0.4,1-1,1.9-1.7,2.6c-0.8,0.7-1.7,1.3-2.7,1.7C639,262.6,637.8,262.9,636.4,262.9"/>
	<path class="st0" d="M676.7,259.8c0,1.2-0.2,2.2-0.6,3.1c-0.5,0.9-1.1,1.7-1.8,2.3c-0.8,0.7-1.7,1.1-2.7,1.4
		c-1,0.3-2.2,0.5-3.4,0.5c-1.8,0-3.6-0.3-5.3-1c-1.5-0.6-3.1-1.5-4.6-2.9l-0.6-0.5l2.6-3.1l0.6,0.5c1.1,1,2.2,1.8,3.4,2.3
		c1.2,0.5,2.5,0.8,3.9,0.8c1.3,0,2.4-0.3,3.3-0.9c0.7-0.6,1.1-1.3,1.1-2.3c0-0.4-0.1-0.8-0.2-1.1c-0.1-0.3-0.3-0.6-0.7-0.9
		c-0.4-0.3-0.9-0.6-1.6-0.8c-0.8-0.3-1.8-0.5-2.9-0.8c-1.2-0.2-2.4-0.6-3.5-1c-0.9-0.4-1.8-0.8-2.6-1.5c-0.7-0.6-1.2-1.3-1.6-2.1
		c-0.3-0.9-0.5-1.8-0.5-2.8s0.2-1.9,0.6-2.8c0.4-0.9,1-1.6,1.8-2.2c0.7-0.6,1.5-1.1,2.6-1.4c0.9-0.4,2-0.5,3.3-0.5
		c1.9,0,3.4,0.3,4.7,0.7c1.4,0.5,2.7,1.3,3.8,2.2l0.6,0.4l-2.4,3.2l-0.6-0.4c-1-0.8-2-1.4-3-1.8c-1-0.3-2.1-0.5-3.1-0.5
		c-0.7,0-1.3,0.1-1.8,0.2c-0.5,0.2-1,0.4-1.3,0.7c-0.3,0.2-0.5,0.6-0.7,0.9c-0.2,0.4-0.3,0.8-0.3,1.1c0,0.4,0.1,0.8,0.2,1.2
		c0.1,0.3,0.4,0.6,0.7,0.9c0.4,0.3,1.1,0.6,1.7,0.8c0.8,0.3,1.9,0.6,3,0.8c2.7,0.6,4.7,1.5,6,2.5C676,256.2,676.7,257.8,676.7,259.8
		"/>
	<path class="st0" d="M224.6,192.1c0.7-0.2,1.3-0.4,1.9-0.8c1.1-0.5,2-1.2,2.8-2c0.8-0.8,1.4-1.7,1.9-2.8c0.4-1,0.7-2.3,0.7-3.6
		c0-1.4-0.3-2.8-0.8-4c-0.6-1.2-1.4-2.2-2.4-3.1c-1-0.8-2.3-1.5-3.6-1.9c-1.4-0.4-3-0.7-4.6-0.7h-13.5v31.1h5.3V193h6.9l8.5,11.4
		h6.5L224.6,192.1z M220.1,188.1h-8v-9.9h8c2.2,0,3.8,0.4,4.9,1.3c1.1,0.8,1.6,2,1.6,3.5c0,0.8-0.2,1.5-0.4,2.1
		c-0.3,0.6-0.8,1.1-1.3,1.6c-0.6,0.4-1.3,0.8-2.1,1C222,188,221.1,188.1,220.1,188.1"/>
	<path class="st0" d="M188.2,179.3c-0.5-1.3-1.3-2.4-2.3-3.2c-0.9-0.8-2.1-1.5-3.5-2c-1.3-0.4-2.8-0.7-4.4-0.7h-11v30.7h4.9V194h5.6
		c1.5,0,3-0.2,4.3-0.6c1.4-0.4,2.6-1.1,3.7-1.9c1.1-0.9,1.9-2,2.5-3.3c0.6-1.3,1-2.8,1-4.5C189,182,188.8,180.6,188.2,179.3
		 M177.6,189.1h-5.8v-10.7h5.9c2,0,3.6,0.5,4.7,1.4c1.1,0.9,1.6,2.2,1.6,3.9c0,0.8-0.1,1.5-0.4,2.2c-0.3,0.7-0.7,1.2-1.3,1.7
		c-0.5,0.5-1.2,0.8-2,1.1C179.6,188.9,178.6,189.1,177.6,189.1"/>
	<rect x="249.8" y="173.2" class="st0" width="5.2" height="31.1"/>
	<polygon class="st0" points="302.1,173.1 301.9,173.6 288.7,204.4 284.5,204.4 284.4,204.2 271.1,173.1 276.9,173.1 277,173.3 
		286.7,196.7 296.4,173.1 	"/>
	<path class="st0" d="M329.3,173.3l-0.1-0.2h-4.3l-14.2,31.4h5.5l3.5-7.7h14.6l3.4,7.7h5.7L329.3,173.3z M321.9,191.9l5.2-11.5
		l5.1,11.5H321.9z"/>
	<polygon class="st0" points="378.2,173.2 378.2,178.2 368.4,178.2 368.4,204.3 363.2,204.3 363.2,178.2 353.4,178.2 353.4,173.2 	
		"/>
	<polygon class="st0" points="418.3,199.4 418.3,204.3 395,204.3 395,173.2 418.1,173.2 418.1,178.1 400.3,178.1 400.3,186.2 
		416.2,186.2 416.2,191.1 400.3,191.1 400.3,199.4 	"/>
	<path class="st0" d="M478.4,192.1c0.7-0.2,1.3-0.4,1.9-0.8c1-0.5,2-1.1,2.8-2c0.8-0.8,1.5-1.8,1.9-2.8c0.4-1.1,0.7-2.3,0.7-3.6
		c0-1.4-0.3-2.7-0.8-4c-0.5-1.2-1.3-2.2-2.4-3.1c-1-0.8-2.2-1.5-3.6-1.9c-1.4-0.4-3-0.7-4.7-0.7h-13.5v31.1h5.2V193h6.9l8.4,11.2
		l0.1,0.1h6.5L478.4,192.1z M473.8,188.1h-8v-9.9h8.1c2.1,0,3.8,0.4,4.9,1.3c1.1,0.8,1.6,2,1.6,3.5c0,0.8-0.2,1.5-0.5,2.1
		c-0.3,0.6-0.8,1.1-1.3,1.6c-0.6,0.4-1.3,0.8-2.1,1C475.7,188,474.8,188.1,473.8,188.1"/>
	<polygon class="st0" points="526.5,199.4 526.5,204.3 503.2,204.3 503.2,173.2 526.2,173.2 526.2,178.1 508.4,178.1 508.4,186.2 
		524.4,186.2 524.4,191.1 508.4,191.1 508.4,199.4 	"/>
	<path class="st0" d="M565.6,195.5c0,1.4-0.3,2.7-0.8,3.8c-0.5,1.1-1.3,2.2-2.3,3c-1,0.8-2.2,1.4-3.5,1.9c-1.4,0.4-2.8,0.6-4.3,0.6
		c-2.4,0-4.6-0.4-6.8-1.2c-2.1-0.8-4-2-5.8-3.7l-0.7-0.6l3.3-3.9l0.7,0.7c1.4,1.3,2.9,2.3,4.4,2.9c1.5,0.6,3.1,1,5,1
		c1.7,0,3.1-0.4,4.1-1.2c0.9-0.8,1.4-1.7,1.4-2.9c0-0.6-0.1-1.1-0.3-1.5c-0.1-0.4-0.4-0.8-0.9-1.1c-0.5-0.4-1.2-0.7-2.1-1.1
		c-0.9-0.3-2.2-0.7-3.7-1c-1.6-0.3-3.1-0.8-4.5-1.3c-1.3-0.5-2.5-1.1-3.4-1.9c-0.9-0.8-1.6-1.6-2-2.7c-0.4-1-0.7-2.2-0.7-3.6
		c0-1.3,0.3-2.5,0.8-3.6c0.5-1.1,1.3-2.1,2.3-2.8c0.9-0.8,2.1-1.4,3.4-1.8c1.2-0.4,2.6-0.7,4.1-0.7c2.3,0,4.3,0.3,5.9,0.9
		c1.7,0.6,3.3,1.5,4.9,2.8l0.8,0.6l-3.1,4.1l-0.8-0.7c-1.3-1-2.6-1.8-3.8-2.3c-1.2-0.4-2.6-0.7-4-0.7c-0.9,0-1.6,0.1-2.3,0.3
		c-0.7,0.2-1.3,0.5-1.7,0.8c-0.4,0.3-0.8,0.7-1,1.1c-0.2,0.5-0.4,1-0.4,1.5c0,0.6,0.1,1.1,0.3,1.5c0.2,0.4,0.5,0.8,0.9,1.1
		c0.5,0.4,1.2,0.8,2.2,1.1c1,0.4,2.3,0.7,3.8,1c3.4,0.8,5.9,1.9,7.6,3.2C564.7,190.9,565.6,192.9,565.6,195.5"/>
	<rect x="584" y="173.2" class="st0" width="5.2" height="31.1"/>
	<path class="st0" d="M633.9,182.6c-0.8-1.9-2-3.6-3.4-5c-1.5-1.4-3.2-2.5-5.3-3.3c-2-0.8-4.2-1.2-6.6-1.2h-11.1v31.1h11.1
		c2.4,0,4.6-0.4,6.6-1.2c2-0.8,3.8-1.9,5.2-3.3c1.4-1.4,2.6-3,3.4-5c0.8-1.9,1.2-4,1.2-6.1C635.1,186.5,634.7,184.5,633.9,182.6
		 M618.7,199.3h-5.9v-21.2h5.9c1.7,0,3.3,0.3,4.6,0.8c1.4,0.5,2.5,1.3,3.5,2.3c1,1,1.7,2.1,2.2,3.4c0.5,1.4,0.8,2.8,0.8,4.2
		c0,1.5-0.3,2.9-0.8,4.2c-0.5,1.3-1.3,2.4-2.2,3.3c-0.9,0.9-2.1,1.7-3.5,2.2C622,199.1,620.4,199.3,618.7,199.3"/>
	<polygon class="st0" points="676,199.4 676,204.3 652.7,204.3 652.7,173.2 675.7,173.2 675.7,178.1 657.9,178.1 657.9,186.2 
		673.9,186.2 673.9,191.1 657.9,191.1 657.9,199.4 	"/>
	<polygon class="st0" points="719.8,173.2 719.8,204.3 715.7,204.3 715.4,203.9 698.3,182.2 698.3,204.3 693.1,204.3 693.1,173.2 
		697.7,173.2 714.6,194.8 714.6,173.2 	"/>
	<path class="st0" d="M765.4,198.7l-0.7,0.7c-0.7,0.7-1.4,1.4-2.5,2.2c-0.9,0.7-1.9,1.2-2.8,1.7c-1,0.5-2.1,0.8-3.3,1.1
		c-1.1,0.3-2.4,0.4-3.8,0.4c-2.2,0-4.3-0.4-6.2-1.2c-1.9-0.9-3.6-2-4.9-3.4c-1.4-1.4-2.5-3.1-3.3-5.1c-0.8-1.9-1.2-4.1-1.2-6.3
		c0-2.2,0.4-4.3,1.2-6.2c0.8-1.9,1.9-3.7,3.3-5.1c1.4-1.5,3.1-2.7,5-3.5c1.9-0.8,4-1.3,6.3-1.3c1.4,0,2.7,0.1,3.8,0.4
		c1.2,0.3,2.3,0.6,3.2,1c1,0.4,1.9,1,2.7,1.6c0.8,0.5,1.5,1.2,2.3,2l0.7,0.6l-3.5,3.8l-0.7-0.6c-1.2-1.1-2.5-2-3.8-2.8
		c-1.3-0.7-2.9-1-4.7-1c-1.5,0-2.8,0.3-4.1,0.9c-1.3,0.5-2.4,1.3-3.3,2.3c-0.9,1-1.6,2.1-2.2,3.5c-0.5,1.4-0.8,2.8-0.8,4.4
		c0,1.5,0.3,3,0.8,4.4c0.5,1.4,1.3,2.6,2.2,3.5c0.9,1,2,1.8,3.3,2.3c1.2,0.6,2.6,0.8,4.1,0.8c1.9,0,3.5-0.3,4.8-1
		c1.3-0.7,2.7-1.7,4-3l0.7-0.7L765.4,198.7z"/>
	<polygon class="st0" points="804.6,199.4 804.6,204.3 781.3,204.3 781.3,173.2 804.4,173.2 804.4,178.1 786.6,178.1 786.6,186.2 
		802.5,186.2 802.5,191.1 786.6,191.1 786.6,199.4 	"/>
	<path class="st0" d="M843.7,195.5c0,1.4-0.3,2.7-0.8,3.8c-0.6,1.2-1.3,2.2-2.3,3c-1,0.8-2.2,1.4-3.4,1.9c-1.4,0.4-2.8,0.6-4.3,0.6
		c-2.4,0-4.7-0.4-6.8-1.2c-2-0.8-4-2-5.8-3.7l-0.7-0.6l3.3-3.9l0.8,0.7c1.4,1.3,2.9,2.3,4.4,2.9c1.5,0.6,3.1,1,5,1
		c1.7,0,3.1-0.4,4.2-1.2c0.9-0.7,1.4-1.6,1.4-2.9c0-0.6-0.1-1.1-0.3-1.5c-0.2-0.4-0.5-0.8-0.9-1.1c-0.4-0.4-1.1-0.7-2-1.1
		c-0.9-0.3-2.1-0.7-3.7-1c-1.6-0.3-3.1-0.8-4.5-1.3c-1.3-0.5-2.4-1.1-3.3-1.9c-0.9-0.8-1.6-1.7-2.1-2.7c-0.4-1-0.7-2.2-0.7-3.6
		c0-1.3,0.3-2.5,0.8-3.6c0.5-1.1,1.3-2.1,2.3-2.8c0.9-0.8,2-1.4,3.4-1.8c1.2-0.4,2.6-0.7,4.2-0.7c2.3,0,4.3,0.3,5.9,0.9
		c1.7,0.6,3.3,1.5,4.9,2.8l0.8,0.6l-3.1,4.1l-0.8-0.7c-1.3-1-2.6-1.8-3.8-2.3c-1.2-0.4-2.6-0.7-4-0.7c-0.9,0-1.6,0.1-2.3,0.3
		c-0.7,0.2-1.2,0.5-1.7,0.8c-0.4,0.3-0.8,0.7-1,1.1c-0.2,0.4-0.3,0.9-0.3,1.5c0,0.6,0.1,1.1,0.3,1.5c0.1,0.4,0.5,0.8,0.9,1.1
		c0.5,0.4,1.3,0.8,2.2,1.1c1,0.4,2.3,0.7,3.8,1c3.4,0.8,6,1.9,7.6,3.2C842.8,190.9,843.7,192.9,843.7,195.5"/>
	<path class="st0" d="M992.3,77.5L944.2,1.9h-7l-43.6,66.6c-10.6,16.5-16.8,25-26.8,26.9v2.8c5.5-0.1,11-0.3,16.4-0.3
		c5.5,0,11,0.2,16.6,0.3v-2.6c-6.8-0.9-7.6-3.9-7.6-6.8c0-4.5,6.2-13.8,9-18.2l34.4-54.1l37.9,60.2c2.9,4.8,6.1,10.2,6.1,13.5
		c0,2.9-2.3,5.2-7.1,5.8v2.3c7-0.1,13.9-0.3,21-0.3c6.1,0,11.6,0.2,17.4,0.3v-3C1003.4,93.2,998,86.5,992.3,77.5"/>
	<path class="st0" d="M70.9,0C24,0,0,24.9,0,51.4c0,28.2,27.5,48.6,69.5,48.6c46.9,0,71.1-24.6,71.1-51C140.6,21.3,113.9,0,70.9,0
		 M71.2,95.1c-35.4,0-51-23-51-47.2c0-27.7,20.2-43.2,49.1-43.2c35.6,0,50.8,23.3,50.8,47.6C120.2,80.1,100.1,95.1,71.2,95.1"/>
	<path class="st0" d="M359.1,77.3l-19.2-57.4c-0.9-2.4-2.1-6.1-2.1-8c0-5.1,4.1-6.8,8.1-7.5V1.7h-14.7c-6.1,0-10,0.9-12.8,6.1
		l-39.9,72.3L240.2,7.6c-2.4-4.3-5.5-5.9-11.2-5.9h-16.2v2.7c4.8,0.7,7.1,2.5,7.1,6.5c0,1.9-0.5,4.2-1.4,7.1l-18.8,56.9
		c-4.3,12.8-8.8,19.3-17.4,20.6v2.6c5.2-0.1,10.4-0.3,15.8-0.3c6.9,0,10,0.2,15.7,0.3v-2.6c-5.8-0.7-8.6-3.3-8.6-8.6
		c0-2.6,0.7-5.9,2.1-10L227,16.6l41.7,77.6c2.1,4.1,3.5,6.4,4.5,6.4c1,0,2.6-2.3,6.4-9l42-74.7l21.3,64.1c0.7,2.2,1,4.2,1,5.9
		c0,5.1-3.1,7.9-8.5,8.7v2.5c9.5-0.1,15.2-0.3,21.3-0.3c6.5,0,11.3,0.3,18.7,0.3v-2.6C365.6,94.2,362,86.1,359.1,77.3"/>
	<path class="st0" d="M779.8,1.8v2.7c3.4,0.7,7.3,2.4,8.9,5.3c0.9,1.7,1.4,4,1.4,8v61.7c0,5.5-0.3,8.5-1.4,10.5
		c-1.7,2.9-5.5,4.7-8.9,5.3v2.7c6-0.1,11.9-0.3,18.5-0.3c6.4,0,12.4,0.2,18.3,0.3v-2.7c-3.4-0.7-7.3-2.4-8.9-5.3
		c-1-2.1-1.4-5-1.4-10.5V17.8c0-4,0.5-6.2,1.4-8c1.7-2.9,5.5-4.7,8.9-5.3V1.8c-6,0.1-11.9,0.3-18.5,0.3
		C791.8,2.1,785.7,1.9,779.8,1.8"/>
	<path class="st0" d="M695.1,66.9c-4.3-6.1-7.4-10.2-11.2-12.1c15.6-2.4,29.2-9.2,29.2-26.1c0-24.9-28-27.1-48.8-27.1
		c-9.3,0-26.6,0.3-37.7,0.3c-9.7,0-14.5-0.2-21.9-0.3v2.8c7,0.9,12.4,4.8,12.4,20.9v50.3c0,16-5.5,19.1-12.4,19.8v2.8
		c7.5-0.1,14-0.3,20.9-0.3c6.8,0,12.9,0.2,20.3,0.3v-2.7c-7-0.6-12.5-4-12.5-19.9V57.4c0-0.9,0.2-1.2,1-1.2h27.1
		c4,0.2,6.7,1.6,9.9,5.7c25.8,36.8,29,37.2,51.9,37.2c1.2,0,2.2,0,3.2-0.1v-3C716.9,94.8,709.9,88.3,695.1,66.9 M667.1,50.5h-32.7
		c-0.9,0-1-0.3-1-1V25.1c0-17.5,0.3-17.6,18.8-17.6h14.9c15.2,0,27.8,4.5,27.8,21.3C695,43.9,682.3,50.5,667.1,50.5"/>
	<path class="st0" d="M487.9,0C441,0,417,24.9,417,51.4c0,28.2,27.5,48.6,69.5,48.6c46.9,0,71.1-24.6,71.1-51
		C557.5,21.3,530.9,0,487.9,0 M488.2,95.1c-35.4,0-51-23-51-47.2c0-27.7,20.2-43.2,49.1-43.2c35.6,0,50.8,23.3,50.8,47.6
		C537.1,80.1,517.1,95.1,488.2,95.1"/>
</g>
</svg>
