<?xml version="1.0" encoding="UTF-8"?>
<svg id="Layer_1" xmlns="http://www.w3.org/2000/svg" version="1.1" viewBox="0 0 595.28 595.28">
  <!-- Generator: Adobe Illustrator 29.8.1, SVG Export Plug-In . SVG Version: 2.1.1 Build 2)  -->
  <defs>
    <style>
      .st0 {
        fill: #231f20;
      }
    </style>
  </defs>
  <path class="st0" d="M329.34,278.5v-14.89h-47.8v67.91h16.86v-53.02h30.95ZM370.11,316.63h-26.89l13.45-23.29,13.44,23.29ZM356.67,261.92l-40.19,69.6h80.37l-40.18-69.6ZM235.02,318.56c-11.32,0-20.49-9.37-20.49-20.93s9.17-20.93,20.49-20.93,20.49,9.37,20.49,20.93-9.18,20.93-20.49,20.93M235.02,261.05c-20.21,0-36.59,16.38-36.59,36.59s16.38,36.59,36.59,36.59,36.59-16.38,36.59-36.59-16.38-36.59-36.59-36.59"/>
</svg>