<svg preserveAspectRatio="xMidYMid meet" viewBox="0 0 111 34" fill="none" xmlns="http://www.w3.org/2000/svg">
<g id="id_EWWFXbn_logos 1" clip-path="url(#clip0_0_270)">
<path id="Vector" d="M5.74114 16.8351V32.1718C7.01255 32.3927 8.10631 32.5257 9.07171 32.5257C13.8919 32.5247 16.3054 29.9233 16.3054 24.768C16.3054 19.479 13.15 16.8348 6.83927 16.8351H5.74114ZM5.74114 15.779C11.351 15.779 14.156 13.531 14.156 9.0352C14.156 4.98069 11.5262 2.46955 8.01993 2.46955C7.24693 2.46921 6.47843 2.58787 5.74114 2.82142V15.779ZM0 33.4507C1.79658 33.142 2.32272 32.9654 2.49793 29.4393V5.77471C2.49793 4.14348 2.32272 3.08738 1.97228 2.64572C1.66529 2.20552 1.00689 1.89636 0.0873673 1.76532V1.54449C1.35878 1.58963 2.54234 1.63233 3.59364 1.63233C5.34727 1.63233 7.84469 1.54449 8.76474 1.54449C11.6126 1.54449 13.806 2.25065 15.2521 3.66057C16.6983 5.07048 17.4435 6.78809 17.4435 8.77119C17.4435 12.0768 15.5586 14.6326 11.3949 15.7339C14.0686 16.0862 16.1736 17.1443 17.6183 18.9065C19.1083 20.6256 19.8531 22.6538 19.8531 24.9009C19.8531 27.4554 19.0647 29.5704 17.4879 31.2458C15.9105 32.877 13.6747 33.7137 10.8268 33.7137C9.99412 33.7137 8.89941 33.6691 7.45178 33.6259C6.00421 33.5827 4.91043 33.5808 4.12123 33.5808C2.67315 33.5808 1.27334 33.6259 0.00144802 33.6691L0 33.4507Z" fill="var(--fill-0, white)"/>
<path id="Vector_2" d="M29.0546 33.6689C26.4693 33.5379 25.0666 33.5379 22.4808 33.6689V33.4505C23.2256 33.3176 23.7078 33.0089 23.9709 32.5687C24.2339 32.1285 24.3677 31.0695 24.3677 29.4382V3.56967C24.3677 1.85302 24.2364 1.54387 23.0089 1.19151V0.970678C24.6302 0.839637 25.9891 0.530476 27.1726 0V29.4382C27.1726 31.0695 27.3039 32.1276 27.566 32.5677C27.8281 33.0079 28.3093 33.3166 29.0546 33.4505V33.6689Z" fill="var(--fill-0, white)"/>
<path id="Vector_3" d="M47.7645 29.9232C48.6845 27.809 48.992 25.7808 48.992 22.9605C48.992 16.307 46.6268 13.0018 41.8482 13.0018C37.4209 13.0018 35.187 16.571 35.187 23.6667C35.187 30.0566 37.4654 33.2764 42.0678 33.2764C44.8727 33.2764 46.8465 32.0421 47.7636 29.9275L47.7645 29.9232ZM31.549 23.2697C31.549 20.1402 32.5573 17.5427 34.5725 15.5129C36.5888 13.442 39.1311 12.4286 42.1547 12.4286C45.1782 12.4286 47.6796 13.442 49.6494 15.5129C51.6193 17.5839 52.6296 20.1402 52.6296 23.2697C52.6296 26.2229 51.6642 28.7341 49.7817 30.8055C47.8992 32.8318 45.3559 33.8452 42.2435 33.8452C35.5823 33.8452 31.5499 29.8353 31.5499 23.2697" fill="var(--fill-0, white)"/>
<path id="Vector_4" d="M71.2963 29.9232C72.2173 27.809 72.5238 25.7808 72.5238 22.9605C72.5238 16.307 70.1586 13.0018 65.38 13.0018C60.9527 13.0018 58.7188 16.571 58.7188 23.6667C58.7188 30.0566 60.9985 33.2764 65.6 33.2764C68.405 33.2764 70.3787 32.0421 71.2958 29.9275L71.2963 29.9232ZM55.0808 23.2697C55.0808 20.1402 56.0882 17.5427 58.1043 15.5129C60.1205 13.442 62.6629 12.4286 65.6865 12.4286C68.7101 12.4286 71.2089 13.442 73.1813 15.5129C75.1536 17.5839 76.1614 20.1402 76.1614 23.2697C76.1614 26.2229 75.1963 28.7341 73.3135 30.8055C71.431 32.8318 68.8872 33.8452 65.7748 33.8452C59.1137 33.8452 55.0817 29.8353 55.0817 23.2697" fill="var(--fill-0, white)"/>
<path id="Vector_5" d="M111.001 33.6688C108.415 33.5377 107.014 33.5377 104.428 33.6688V33.4504C105.173 33.3174 105.654 33.0087 105.918 32.5685C106.183 32.1283 106.312 31.0702 106.312 29.439V20.4918C106.312 15.6903 104.691 13.3088 101.491 13.3088C99.5185 13.3088 97.4161 14.1008 95.1807 15.6442C95.7063 16.745 95.9687 18.2005 95.9687 20.0506V29.4381C95.9687 31.0693 96.101 32.1273 96.3642 32.5676C96.6266 33.0077 97.1088 33.3164 97.8535 33.4504V33.6698C95.2689 33.5387 93.8663 33.5387 91.2788 33.6698V33.4504C92.0241 33.3174 92.5064 33.0087 92.771 32.5685C93.0349 32.1283 93.1635 31.0702 93.1635 29.439V20.2729C93.1635 17.5836 92.7262 15.7336 91.8066 14.7633C90.8862 13.7931 89.7461 13.3088 88.3435 13.3088C86.4587 13.3088 84.6614 13.882 83.0412 15.0279V29.4381C83.0412 31.0693 83.1721 32.1273 83.4352 32.5676C83.6977 33.0077 84.1792 33.3164 84.9238 33.4494V33.6688C82.3399 33.5377 80.9374 33.5377 78.3513 33.6688V33.4504C79.0967 33.3174 79.5789 33.0087 79.8413 32.5685C80.1038 32.1283 80.2361 31.0702 80.2361 29.439V15.9976C80.2361 14.2804 80.1045 13.9713 78.8776 13.6194V13.3986C80.4985 13.2656 81.8577 12.9584 83.0412 12.4279V14.1921C84.9238 13.0011 87.0284 12.4279 89.4388 12.4279C92.0241 12.4279 93.8663 13.3097 94.8734 15.0721C97.3713 13.3097 99.9566 12.4279 102.586 12.4279C106.925 12.4279 109.116 15.0288 109.116 20.2724V29.4381C109.116 31.0693 109.248 32.1273 109.511 32.5676C109.774 33.0077 110.256 33.3164 111.001 33.4494V33.6688Z" fill="var(--fill-0, white)"/>
</g>
<defs>
<clipPath id="clip0_0_270">
<rect width="111" height="34" fill="white"/>
</clipPath>
</defs>
</svg>
