<?xml version="1.0" encoding="UTF-8"?>
<svg id="Layer_1" xmlns="http://www.w3.org/2000/svg" version="1.1" viewBox="0 0 595.28 595.28">
  <!-- Generator: Adobe Illustrator 29.8.1, SVG Export Plug-In . SVG Version: 2.1.1 Build 2)  -->
  <g>
    <g>
      <path d="M102.48,312.68l-7.68-11.97h-6.01v11.97h-3.75v-30.13h12.1c5.5,0,9.45,3.52,9.45,9.07s-3.7,8.4-7.81,8.76l8.13,12.28h-4.42v.02ZM102.71,291.62c0-3.39-2.44-5.74-6.01-5.74h-7.9v11.52h7.9c3.57,0,6.01-2.4,6.01-5.79v.02Z"/>
      <path d="M154.89,312.68v-30.13h19.74v3.34h-15.99v9.72h15.67v3.34h-15.67v10.39h15.99v3.34h-19.74v-.02Z"/>
      <path d="M204.23,312.68l-12.1-30.13h4.29l10.17,26.02,10.17-26.02h4.29l-12.15,30.13h-4.66Z"/>
      <path d="M238.2,297.64c0-8.89,6.01-15.58,14.95-15.58s14.95,6.69,14.95,15.58-6.06,15.58-14.95,15.58-14.95-6.69-14.95-15.58ZM264.23,297.64c0-7.05-4.33-12.24-11.07-12.24s-11.07,5.19-11.07,12.24,4.29,12.24,11.07,12.24,11.07-5.23,11.07-12.24Z"/>
      <path d="M288.44,312.68v-30.13h3.75v26.79h14.01v3.34h-17.76Z"/>
      <path d="M324.72,300.98v-18.43h3.75v18.34c0,5.5,2.98,8.98,8.53,8.98s8.53-3.48,8.53-8.98v-18.34h3.75v18.39c0,7.5-4.11,12.28-12.28,12.28s-12.28-4.83-12.28-12.24Z"/>
      <path d="M378.25,312.68v-26.79h-9.54v-3.34h22.86v3.34h-9.58v26.79h-3.75.01Z"/>
      <path d="M411.01,312.68v-30.13h3.75v30.13h-3.75Z"/>
      <path d="M435.06,297.64c0-8.89,6.01-15.58,14.95-15.58s14.95,6.69,14.95,15.58-6.06,15.58-14.95,15.58-14.95-6.69-14.95-15.58ZM461.08,297.64c0-7.05-4.33-12.24-11.07-12.24s-11.07,5.19-11.07,12.24,4.29,12.24,11.07,12.24,11.07-5.23,11.07-12.24Z"/>
      <path d="M506.62,312.68l-17.58-24.03v24.03h-3.75v-30.13h3.84l17.35,23.53v-23.53h3.75v30.13h-3.61Z"/>
    </g>
    <circle cx="129.33" cy="297.64" r="4.72"/>
  </g>
</svg>