<svg preserveAspectRatio="xMidYMid meet" viewBox="0 0 111 37" fill="none" xmlns="http://www.w3.org/2000/svg">
<g id="Sobha_(company) 1" clip-path="url(#clip0_0_112)">
<path id="Vector" fill-rule="evenodd" clip-rule="evenodd" d="M5.52737 0.07837C3.80685 0.336993 2.68442 0.860831 1.68712 1.8706C0.335145 3.23953 0.0264759 4.83511 0.737947 6.77651C1.20144 8.04127 2.81526 9.64856 5.85545 11.8728C8.56201 13.8529 9.76618 14.9977 10.399 16.1921C10.8103 16.9683 10.8575 17.2042 10.8013 18.206C10.73 19.4805 10.4843 19.9326 9.40987 20.7662C8.14551 21.7468 5.70552 21.9119 3.47795 21.1676C2.51965 20.8473 1.81323 20.4758 0.479854 19.5908L0.000209837 19.2725L0.642997 20.4776C1.37013 21.8412 1.62088 22.0217 3.44206 22.4923C5.11396 22.9243 7.42376 22.9206 9.11719 22.4829C11.1723 21.9518 12.4235 21.0837 13.1948 19.6534C13.588 18.9242 13.6803 18.5317 13.7366 17.3502C13.8877 14.1752 12.7816 12.7163 7.32196 8.8895C6.06575 8.00897 4.71736 6.98008 4.32549 6.60294C2.75947 5.09604 2.60089 3.38277 3.91355 2.15312C5.23436 0.915721 8.26917 0.894293 10.656 2.10548L11.513 2.54048L10.942 1.50912C10.429 0.583088 10.2985 0.459299 9.66209 0.294961C8.58469 0.0168879 6.62093 -0.086133 5.52737 0.07837ZM27.0624 1.03605C23.2097 2.16746 20.6316 5.07313 19.7734 9.25131C19.1964 12.0601 19.5387 14.748 20.8063 17.3637C23.1882 22.2782 29.303 24.2735 34.1628 21.7219C38.5435 19.4217 40.6923 13.5378 39.1222 8.141C38.1131 4.67259 35.1565 1.76428 31.835 0.973082C30.4716 0.648362 28.2847 0.677208 27.0624 1.03605ZM101.952 1.24044C101.592 2.03609 93.3805 22.3293 93.3805 22.4241C93.3805 22.4674 93.6518 22.48 93.9836 22.4518L94.5866 22.4007L95.833 19.3513L97.0794 16.3019H101.201H105.322L106.564 19.3925L107.806 22.4831H109.403C110.281 22.4831 111 22.4228 111 22.3492C111 22.2756 109.857 19.4012 108.459 15.962C107.061 12.5226 105.111 7.70716 104.125 5.26088C103.139 2.81476 102.303 0.784184 102.268 0.748745C102.233 0.713306 102.091 0.934676 101.952 1.24044ZM47.2107 11.7503V22.4831L50.8407 22.4773C54.9509 22.4709 56.374 22.2831 57.9782 21.536C59.3915 20.8775 60.3081 20.0383 60.8632 18.8937C61.2554 18.0852 61.321 17.7494 61.3218 16.5461C61.3225 15.2911 61.2657 15.0252 60.7864 14.0412C59.9738 12.3726 58.5968 11.2651 56.5182 10.6085L55.6293 10.3278L56.1609 10.0501C56.9439 9.64098 57.9596 8.66088 58.3007 7.98523C59.2775 6.05075 58.6398 3.56013 56.8634 2.37136C55.4035 1.39423 54.3517 1.17995 50.5959 1.09456L47.2107 1.01742V11.7503ZM69.2352 11.769V22.4831H70.785H72.3349V16.7964V11.1096H77.9634H83.5918V16.8023V22.495L85.1435 22.4478L86.695 22.4007L86.6984 11.769L86.7017 1.13726L85.1468 1.09011L83.5918 1.04297V5.41697V9.79097H77.9634H72.3349V5.42291V1.05484H70.785H69.2352V11.769ZM28.2445 2.04763C26.5155 2.48855 24.8208 3.95425 23.893 5.81109C22.9038 7.79106 22.4407 10.8306 22.7353 13.411C23.238 17.8154 25.0476 20.5524 28.0295 21.4184C30.7266 22.2019 33.7945 20.7092 35.1848 17.9372C36.1392 16.0342 36.3616 14.8841 36.3616 11.8514C36.3616 9.68663 36.296 8.80544 36.0733 7.97781C35.1124 4.40589 32.815 2.13351 29.9899 1.96076C29.3668 1.92268 28.5814 1.96175 28.2445 2.04763ZM50.3104 11.7442V21.3293H51.7246C53.7167 21.3293 55.0372 21.0603 56.0518 20.4477C56.7713 20.0132 57.0078 19.7414 57.4775 18.8093C57.9826 17.8068 58.041 17.5521 58.0441 16.3375C58.0485 14.5863 57.6867 13.5104 56.7324 12.4382C56.0764 11.7009 54.8545 10.9458 53.6549 10.5363C53.3568 10.4345 53.3709 10.403 53.818 10.1703C55.0587 9.52493 55.6585 8.47182 55.8074 6.67695C55.9353 5.1361 55.6417 3.9798 54.9434 3.27431C54.2869 2.61086 53.633 2.40498 51.7379 2.26488L50.3104 2.15938V11.7442ZM99.4529 10.4091C98.5438 12.653 97.7523 14.6184 97.6937 14.7772C97.5945 15.0463 97.8221 15.0656 101.085 15.0656C103.009 15.0656 104.621 15.0277 104.667 14.9812C104.764 14.8828 101.338 6.33921 101.199 6.33344C101.148 6.3313 100.362 8.16523 99.4529 10.4091ZM51.7143 34.3654C51.2113 35.6526 50.7999 36.7693 50.7999 36.8469C50.7999 36.9247 51.0142 36.9884 51.2764 36.9884C51.6732 36.9884 51.7707 36.9056 51.8603 36.4939C51.9667 36.0045 51.9789 35.9994 53.061 35.9994C54.126 35.9994 54.1592 36.0122 54.3391 36.4939C54.4892 36.8959 54.6178 36.9884 55.0261 36.9884H55.5284L55.287 36.3702C55.1542 36.0304 54.7305 34.9362 54.3455 33.939C53.6769 32.2076 53.6224 32.1235 53.1371 32.0754L52.6287 32.0251L51.7143 34.3654ZM39.2166 34.5983V36.9884H39.7061C40.1906 36.9884 40.1955 36.9791 40.1955 36.0818V35.1752L40.7257 35.1798C41.1917 35.1839 41.3215 35.2939 41.7963 36.0864C42.2539 36.8507 42.4097 36.9884 42.8159 36.9884C43.0796 36.9884 43.2952 36.9562 43.2952 36.9168C43.2952 36.8776 43.0704 36.48 42.7955 36.0333L42.296 35.2212L42.8161 34.6957C43.2805 34.2264 43.3262 34.0965 43.2443 33.4794C43.1004 32.3948 42.7461 32.2082 40.83 32.2082H39.2166V34.5983ZM45.5793 34.6037V36.9993L47.4146 36.9526C49.1258 36.9091 49.25 36.8837 49.25 36.5763C49.25 36.2771 49.1255 36.2422 47.9041 36.1988L46.5581 36.1509V35.5884V35.026L47.5778 34.9771C48.4937 34.9329 48.6028 34.8902 48.6496 34.5571C48.6991 34.2048 48.648 34.1862 47.63 34.1862H46.5581V33.515V32.8438L47.4384 32.9549C48.6061 33.1024 49.3316 32.9374 49.3316 32.5249C49.3316 32.231 49.197 32.2082 47.4554 32.2082H45.5793V34.6037ZM57.4888 34.5983V36.9884H59.2018H60.9148V36.5763C60.9148 36.1734 60.8876 36.1642 59.6912 36.1642H58.4676V34.1862V32.2082H57.9782H57.4888V34.5983ZM61.8937 32.6203C61.8937 33.0049 61.948 33.0324 62.7094 33.0324H63.5251V35.0104V36.9884H64.0145H64.504V35.0104V33.0324H65.3197C66.0811 33.0324 66.1354 33.0049 66.1354 32.6203V32.2082H64.0145H61.8937V32.6203ZM67.7669 32.3089C67.7669 32.3643 68.1339 33.0236 68.5826 33.7741C69.304 34.981 69.3983 35.2454 69.3983 36.0635C69.3983 36.9813 69.402 36.9884 69.8877 36.9884C70.3714 36.9884 70.3772 36.9778 70.3772 36.0938C70.3772 35.3072 70.4775 35.0339 71.2095 33.8274C71.6673 33.0729 72.0755 32.3999 72.1164 32.3318C72.1574 32.2638 71.9481 32.209 71.6512 32.2102C71.1604 32.212 71.0624 32.3022 70.5723 33.2035C70.2758 33.7487 69.9685 34.1542 69.889 34.1046C69.8096 34.055 69.5145 33.608 69.2332 33.1113C68.7966 32.3406 68.6519 32.2082 68.2444 32.2082C67.9817 32.2082 67.7669 32.2535 67.7669 32.3089ZM40.1955 33.7122V34.5568L41.1078 34.4803C42.0627 34.4003 42.3095 34.2128 42.3139 33.564C42.3169 33.1183 41.7855 32.8676 40.8375 32.8676H40.1955V33.7122ZM52.7144 34.1671C52.3225 35.2819 52.3408 35.34 53.0839 35.34C53.4968 35.34 53.7368 35.2644 53.7373 35.134C53.7384 34.8366 53.1997 33.3621 53.0899 33.3621C53.039 33.3621 52.87 33.7244 52.7144 34.1671Z" fill="var(--fill-0, black)"/>
<g id="Vector_2">
</g>
</g>
<defs>
<clipPath id="clip0_0_112">
<rect width="111" height="37" fill="white"/>
</clipPath>
</defs>
</svg>
