<?xml version="1.0" encoding="UTF-8"?>
<svg id="Layer_1" xmlns="http://www.w3.org/2000/svg" version="1.1" viewBox="0 0 595.28 595.28">
  <!-- Generator: Adobe Illustrator 29.8.1, SVG Export Plug-In . SVG Version: 2.1.1 Build 2)  -->
  <defs>
    <style>
      .st0 {
        fill: #231f20;
      }
    </style>
  </defs>
  <g>
    <g>
      <path class="st0" d="M287.53,333.93h-9.33v-70.52h6.22c10.88,0,14.52,5.45,14.52,13.48,0,1.3.77,14.52-9.85,16.86,2.85.78,7.78,2.33,11.92,6.22,4.41,3.63,6.22,9.07,6.22,15.55.26,10.89-5.96,18.41-19.71,18.41M297.38,293.49c7.26-2.6,12.44-7.78,12.44-16.08,0-12.7-11.66-18.15-26.44-18.15h-16.85v79.59h22.03c16.59,0,31.11-6.74,31.11-22.03,0-12.44-9.07-21-22.29-23.33"/>
      <path class="st0" d="M99.05,336.01c5.45,2.85,12.44,4.15,18.15,4.15,10.37,0,28.52-3.63,28.52-21.78,0-12.7-9.07-19.71-24.11-30.08-7-4.93-16.33-9.85-16.33-18.15,0-6.74,6.22-10.88,15.03-10.88s15.56,4.15,17.12,5.18l-4.41-7.52c-3.12-1.3-9.59-1.82-12.96-1.82-11.41,0-24.89,4.93-24.89,18.67,0,10.89,8.55,16.86,22.55,26.97,6.48,4.67,16.85,12.18,16.85,21.26,0,8.55-6.74,13.74-17.37,13.74-12.44,0-21.78-7.52-23.85-9.33l5.71,9.59Z"/>
      <path class="st0" d="M228.68,298.94c0-21.52-10.37-36.81-26.18-36.81s-26.18,15.3-26.18,36.81,10.36,36.81,26.18,36.81,26.18-15.04,26.18-36.81M202.49,340.16c-21.26,0-37.85-16.85-37.85-41.22s16.6-41.22,37.85-41.22,37.85,17.63,37.85,41.22-16.6,41.22-37.85,41.22"/>
    </g>
    <path class="st0" d="M451.12,310.86h26.96l-13.48-33.19-13.48,33.19ZM479.9,315.53h-30.6l-9.59,23.33h-4.67l33.44-81.4,33.45,81.4h-12.18l-9.85-23.33Z"/>
    <polygon class="st0" points="401.08 259.27 401.08 291.94 358.3 291.94 358.3 259.27 346.64 259.27 346.64 338.86 358.3 338.86 358.3 296.34 401.08 296.34 401.08 338.86 412.75 338.86 412.75 259.27 401.08 259.27"/>
  </g>
</svg>