<?xml version="1.0" encoding="UTF-8"?>
<svg id="Layer_1" xmlns="http://www.w3.org/2000/svg" version="1.1" viewBox="0 0 595.28 595.28">
  <!-- Generator: Adobe Illustrator 29.8.1, SVG Export Plug-In . SVG Version: 2.1.1 Build 2)  -->
  <g>
    <path d="M301.79,320.97c-18.97,0-30.59,13.33-30.59,30.24s12.08,31.47,29.12,31.47c7.53,0,11.71-2.48,16.06-5.68v-12.85c-3.72,4.7-8.77,8.16-14.95,8.16-11.37,0-19.38-9.25-19.38-20.25s7.54-20.73,19.51-20.73c9.86,0,19.26,5.68,19.26,16.79v33.31h10.85v-32.32c0-17.03-11.61-28.14-29.88-28.14Z"/>
    <path d="M251.07,359.97c0,7.53-4.18,12.34-10.62,12.34-7.03,0-11.58-3.97-11.58-14.08v-36.02h-10.85v36.02c0,10.11-4.59,14.08-11.61,14.08-6.42,0-10.61-4.81-10.61-12.34v-37.76h-11.03v39.51l.1-.37c.02.69.06,1.08.06,1.08,0,11.11,9.14,20.24,21.25,20.24,6.64,0,13.33-2.72,17.27-8.39,3.96,5.67,10.62,8.39,17.28,8.39,12.09,0,21.21-9.13,21.21-20.24v-40.23h-10.85v37.76Z"/>
    <rect x="399.64" y="302.56" width="10.87" height="78.88"/>
    <path d="M351.39,337.77c.27-3.72,1.74-5.19,7.04-5.19h27.39v-10.37h-25.54c-12.94,0-20.22,5.54-20.22,16.04,0,20.49,37.39,16.3,37.39,27.14,0,3.7-1.99,5.68-7.05,5.68h-30.34v10.37h30.34c10.49,0,18.4-5.31,18.4-16.53,0-21.23-37.4-16.91-37.4-27.13Z"/>
    <path d="M217.65,283.53c.9,5.06,4.57,8.11,6.43,9.39,4.47,3.14,13.95,3.34,13.95,3.34v-.08c11.33,0,23.42-5.23,23.5-19.9v-.41h65.51c11.33,0,23.48-5.26,23.48-20,0-12.61-7.9-19.01-23.48-19.01h-30.76v10.19h29.75l.71-.04c2.97,0,12.62.66,12.62,8.85,0,7.01-3.99,10.03-13.37,10.03h-34.89v-29.05h-10v29.05h-19.6v-53.29h-11.13v.78l.02,52.12v10.69c-.02,8.63-6.81,9.86-12.71,9.98h-.31c-3.38.01-6.27-.9-8.66-2.64-2.71-1.95-3.74-5.64-3.74-8.96s.04-16.55,0-16.71h-7.51l-.03,23.58.03-.09c.02.74.08,1.47.21,2.18Z"/>
    <path d="M380.66,275.95h8.02v-10.19h-7.01l-.7.02c-2.99,0-12.65-.65-12.65-8.83,0-7.03,3.99-10.04,13.32-10.04l.83.06h4.49c8.58.19,12.4,3.29,12.4,9.98v19.24c0,8.73-6.96,9.93-13.01,9.99h-10.35v10.01h10.57v-.02h.47c4.42,0,12.71-.84,18.32-6.47,3.42-3.42,5.16-7.97,5.14-13.56l.02-19.19c0-14.09-10.7-18.23-17.09-19.44-1.33-.24-2.77-.41-4.58-.59h-8.19c-11.36,0-23.49,5.26-23.49,20.03,0,12.62,7.9,19,23.49,19Z"/>
  </g>
</svg>