<svg preserveAspectRatio="xMidYMid meet" viewBox="0 0 17.532 15.4182" fill="none" xmlns="http://www.w3.org/2000/svg">
<g id="surface1">
<path id="Vector" d="M17.388 9.45455C17.244 9.12727 16.992 8.90909 16.704 8.8H16.596C16.596 8.76364 16.056 8.76364 16.056 8.76364H15.444H15.156V8.47273V8.25455C15.156 7.96364 15.156 7.41818 15.156 7.12727V6.90909V6.61818H15.444H16.236H16.596C16.992 6.61818 17.1 6.61818 17.208 6.61818C17.316 6.61818 17.424 6.69091 17.532 6.72727C17.532 6.61818 17.532 6.54546 17.46 6.43636C17.352 6.07273 17.136 5.81818 16.848 5.63636C16.728 5.56364 16.416 5.52727 15.912 5.52727C15.12 5.52727 15.084 5.52727 15.012 5.45455C14.94 5.38182 14.904 5.30909 14.904 5.23636C14.904 5.23636 14.904 5.12727 14.832 5.01818C14.436 3.56364 13.68 2.4 12.564 1.52727C12.42 1.41818 12.024 1.16364 11.916 1.09091H11.88C11.88 1.05455 11.808 1.01818 11.772 1.01818C11.7 0.981818 11.268 0.763636 11.196 0.727273C11.124 0.727273 11.052 0.654546 11.016 0.654546C10.404 0.363636 9.36 0.109091 8.568 0.0363636C8.496 0.0363636 8.424 0.0363636 8.352 0.0363636C8.28 0.0363636 8.208 0.0363636 8.172 0.0363636C7.812 8.12791e-09 7.344 0 4.428 0C1.512 0 2.448 0 1.872 0C2.052 0.363636 2.232 0.8 2.304 1.38182C2.376 1.85455 2.376 2 2.376 3.74545V5.6H1.368C0.684 5.6 0.576 5.6 0.432 5.6C0.324 5.6 0.18 5.52727 0.072 5.45455C0.072 5.56364 0.072 5.6 0.108 5.70909C0.18 5.96364 0.252 6.10909 0.36 6.25455C0.54 6.47273 0.684 6.58182 0.936 6.65455C1.008 6.65455 1.368 6.65455 1.512 6.65455H2.088H2.34V8.8H1.224H0.396H0.324H0.288L0.144 8.72727C0.072 8.72727 0.036 8.69091 0 8.65455C0 8.76364 -1.3411e-08 8.8 0.036 8.87273C0.18 9.38182 0.468 9.70909 0.864 9.81818C0.936 9.81818 0.972 9.81818 1.476 9.81818H2.052H2.304V11.7455C2.304 12.5455 2.304 13.4545 2.304 13.6364C2.304 13.7818 2.268 14 2.232 14.1455C2.16 14.6545 2.016 15.0909 1.8 15.4182H4.32C6.084 15.4182 7.488 15.4182 7.668 15.4182C8.028 15.4182 8.784 15.3091 8.928 15.2727C9 15.2727 9.072 15.2727 9.144 15.2364C9.252 15.2364 9.432 15.1636 9.864 15.0909C10.332 14.9818 10.764 14.8 11.196 14.6182C11.34 14.5455 11.7 14.3636 11.808 14.2909H11.88C11.916 14.2182 11.952 14.2182 11.988 14.1818C11.988 14.1818 12.096 14.1091 12.312 13.9636C12.384 13.8909 12.492 13.8545 12.492 13.8182C12.564 13.7818 12.816 13.5636 12.924 13.4545C13.356 13.0545 13.716 12.5818 14.004 12.1091C14.004 12.0364 14.076 11.9636 14.112 11.9273C14.148 11.8182 14.4 11.3455 14.4 11.2727C14.4 11.2 14.436 11.1636 14.472 11.1273C14.544 10.9818 14.76 10.2545 14.796 10.1091C14.796 10.0364 14.832 9.85455 15.084 9.81818C15.084 9.81818 15.12 9.81818 15.48 9.81818C15.84 9.81818 15.84 9.81818 16.092 9.81818C17.1 9.81818 17.136 9.81818 17.388 9.96364C17.388 9.96364 17.388 9.96364 17.424 9.96364C17.424 9.85455 17.424 9.81818 17.424 9.81818C17.352 9.6 17.352 9.56364 17.316 9.49091L17.388 9.45455ZM4.212 0.436364C4.212 0.4 4.248 0.181818 4.248 0.181818H5.76C6.408 0.181818 7.164 0.181818 7.344 0.181818C7.992 0.181818 8.352 0.254545 8.82 0.363636C10.224 0.690909 11.232 1.41818 11.952 2.65455C12.024 2.76364 12.312 3.34545 12.348 3.45455C12.528 4 12.636 4.32727 12.708 4.72727L12.78 5.01818C12.78 5.12727 12.852 5.27273 12.708 5.38182C12.66 5.4303 11.616 5.45455 9.576 5.45455H4.5H4.212V2.83636C4.212 0.727273 4.212 0.472727 4.212 0.4V0.436364ZM12.636 10.7636C12.528 11.2 12.384 11.6364 12.24 11.9636C12.168 12.1091 11.988 12.4727 11.952 12.5818C11.952 12.5818 11.88 12.6909 11.844 12.7636C11.484 13.3091 11.016 13.8182 10.44 14.1818C10.26 14.2909 9.828 14.5455 9.684 14.5818C9.648 14.5818 9.576 14.6545 9.252 14.7273C8.892 14.8727 8.208 15.0182 7.632 15.0545C7.272 15.0909 7.2 15.0909 5.868 15.0909H4.212V9.78182H8.46C10.764 9.78182 12.312 9.78182 12.456 9.78182C12.564 9.78182 12.708 9.85455 12.744 9.96364C12.744 10.0364 12.744 10.0727 12.636 10.7273V10.7636ZM12.96 8.47273C12.96 8.50909 12.924 8.72727 12.924 8.72727H8.604H4.5H4.212V7.67273C4.212 6.8 4.212 6.8 4.248 6.72727C4.296 6.6303 4.764 6.58182 5.652 6.58182C6.372 6.58182 7.416 6.58182 8.568 6.58182H12.888V6.8C12.924 6.8 12.924 6.87273 12.924 6.87273C12.924 6.94545 12.924 8.32727 12.924 8.47273H12.96Z" fill="currentColor"/>
</g>
</svg>
