<svg preserveAspectRatio="none" width="100%" height="100%" overflow="visible" style="display: block;" viewBox="0 0 42 42" fill="none" xmlns="http://www.w3.org/2000/svg">
<g id="verified_24dp_5F6368_FILL0_wght200_GRAD0_opsz24 1">
<path id="Vector" d="M15.7902 37.1538L12.8691 32.2271L7.30975 31.0288L7.85487 25.2941L4.10594 21L7.85487 16.7059L7.30975 10.9712L12.8691 9.77288L15.7902 4.84619L21 7.04725L26.2097 4.84619L29.1309 9.77288L34.6902 10.9712L34.1451 16.7059L37.8941 21L34.1451 25.2941L34.6902 31.0288L29.1309 32.2271L26.2097 37.1538L21 34.9528L15.7902 37.1538ZM16.5375 34.9125L21 33.0549L25.4826 34.9125L28 30.7125L32.8125 29.6424L32.375 24.675L35.6125 21L32.375 17.3049L32.8125 12.3375L28 11.2875L25.4625 7.0875L21 8.94513L16.5174 7.0875L14 11.2875L9.1875 12.3375L9.625 17.3049L6.3875 21L9.625 24.675L9.1875 29.6625L14 30.7125L16.5375 34.9125ZM19.1625 26.0011L27.8386 17.325L26.6 16.0663L19.1625 23.5038L15.4 19.7614L14.1614 21L19.1625 26.0011Z" fill="var(--fill-0, black)"/>
</g>
</svg>
